<svg width="128" height="128" viewBox="0 0 128 128" fill="none" xmlns="http://www.w3.org/2000/svg">
<mask id="path-1-inside-1_0_841" fill="white">
<path d="M116.011 61.0337C115.999 60.9682 115.971 60.8565 115.948 60.7927C115.881 60.6012 115.792 60.4517 115.721 60.3493C115.702 60.3191 115.682 60.288 115.662 60.2586C115.623 60.1998 115.578 60.141 115.536 60.0949L94.6432 37.3815C94.2992 37.007 93.8723 36.7164 93.4085 36.5418L84.0657 33.0151C83.0039 32.6464 81.8865 32.9168 81.0811 33.6616L72.235 31.1207L72.3178 26.5585C74.5758 25.9976 76.2647 23.8856 76.2647 21.3583C76.2647 18.4033 73.9641 16 71.1362 16C68.3084 16 66.007 18.4033 66.007 21.3583C66.007 22.0233 66.5222 22.5624 67.1597 22.5624C67.7963 22.5624 68.3124 22.0233 68.3124 21.3583C68.3124 19.7309 69.5792 18.4074 71.1371 18.4074C72.6933 18.4074 73.961 19.7308 73.961 21.3583C73.961 22.9848 72.6942 24.3082 71.1371 24.3082C71.0181 24.3082 70.9096 24.3443 70.8011 24.3788C70.7842 24.3838 70.7657 24.3838 70.7497 24.3897C70.306 24.5576 69.9852 24.9909 69.9852 25.5116C69.9852 25.5905 70.0142 25.6585 70.0278 25.7332L69.9298 31.1519L61.1913 33.6627C60.3851 32.9204 59.2629 32.6542 58.1771 33.027L48.8639 36.5428C48.4017 36.7183 47.9741 37.008 47.6292 37.3834L26.7179 60.1161C26.7138 60.1203 26.7098 60.127 26.7066 60.1312H11.4573C9.55063 60.1312 8 61.751 8 63.7428V68.5594C8 69.5653 8.39709 70.4748 9.03452 71.1297C8.39707 71.7855 8 72.6941 8 73.7001V78.5166C8 79.5226 8.39709 80.432 9.03452 81.087C8.39707 81.7428 8 82.6513 8 83.6573V88.4739C8 89.4798 8.39709 90.3893 9.03452 91.0442C8.39707 91.7 8 92.6086 8 93.6146V98.4311C8 99.4371 8.39709 100.347 9.03452 101.001C8.39707 101.657 8 102.566 8 103.572V108.388C8 110.38 9.55059 112 11.4573 112H92.2053C93.4207 112 94.4086 110.945 94.4086 109.65V68.0514L100.586 75.4282C100.929 75.8363 101.42 76.0815 101.936 76.1016C102.428 76.1084 102.955 75.9135 103.325 75.534L115.535 62.9434C115.61 62.8737 115.679 62.7965 115.737 62.7091C115.868 62.5093 115.964 62.2851 116.021 62.0416C116.024 62.0265 116.029 62.0097 116.032 61.9937C116.074 61.7964 116.089 61.5965 116.077 61.4067C116.066 61.2262 116.028 61.0818 116.012 61.0322L116.011 61.0337ZM71.1367 33.3008L79.5471 35.7175L71.1351 47.5609L62.7246 35.7175L71.1367 33.3008ZM10.3041 63.7422C10.3041 63.078 10.821 62.5381 11.4568 62.5381H26.4505C26.4931 62.6187 26.5309 62.6968 26.5896 62.7858C26.6692 62.9084 26.7688 63.0092 26.8798 63.0881L33.3522 69.7621H11.4572C10.8222 69.7621 10.3045 69.2222 10.3045 68.558L10.3041 63.7422ZM47.8651 109.592H11.4565C10.8214 109.592 10.3038 109.052 10.3038 108.388V103.572C10.3038 102.908 10.8206 102.368 11.4565 102.368H47.8651V109.592ZM47.8651 99.6352H11.4565C10.8214 99.6352 10.3038 99.0952 10.3038 98.431V93.6145C10.3038 92.9503 10.8206 92.4103 11.4565 92.4103H47.8651V99.6352ZM47.8651 89.6779H11.4565C10.8214 89.6779 10.3038 89.138 10.3038 88.4738V83.6572C10.3038 82.993 10.8206 82.4531 11.4565 82.4531H47.8651V89.6779ZM47.8651 79.7207H11.4565C10.8214 79.7207 10.3038 79.1808 10.3038 78.5165V73.7C10.3038 73.0358 10.8206 72.4958 11.4565 72.4958H36.0019L38.9503 75.5357C39.3209 75.9152 39.8385 76.1033 40.3401 76.1025C40.8546 76.0815 41.3449 75.8371 41.6873 75.4274L44.1431 72.495H47.8648L47.8651 79.7207ZM47.8651 69.7634H46.4327L47.8651 68.053V69.7634ZM102.024 73.4927L95.2977 65.46C94.7945 64.8613 94.0172 64.6547 93.3219 64.9276C92.5816 65.2182 92.1033 65.963 92.1033 66.8254V109.593L50.1695 109.592V66.8245C50.1695 65.963 49.6912 65.2173 48.9509 64.9268C48.2532 64.6539 47.4759 64.8613 46.9743 65.4609L40.2477 73.4909L28.6292 61.5124L28.7916 61.336L29.8993 60.1319L48.8833 39.4934L49.29 39.0508C49.3921 38.9408 49.5159 38.856 49.6477 38.8057L58.928 35.3015C59.28 35.1806 59.6619 35.3468 59.858 35.7062C59.8805 35.7482 59.9054 35.7877 59.9327 35.8263L60.3419 36.4032L69.3802 49.129C70.221 50.3138 72.0536 50.3121 72.892 49.129L81.9302 36.4032L82.3394 35.8271C82.3675 35.7885 82.3925 35.749 82.415 35.7071C82.6119 35.3477 82.9945 35.1822 83.3144 35.2906L92.6243 38.8057C92.757 38.8561 92.8824 38.9417 92.9836 39.0517L93.4016 39.506L113.644 61.5121L102.024 73.4927Z"/>
</mask>
<path d="M116.011 61.0337C115.999 60.9682 115.971 60.8565 115.948 60.7927C115.881 60.6012 115.792 60.4517 115.721 60.3493C115.702 60.3191 115.682 60.288 115.662 60.2586C115.623 60.1998 115.578 60.141 115.536 60.0949L94.6432 37.3815C94.2992 37.007 93.8723 36.7164 93.4085 36.5418L84.0657 33.0151C83.0039 32.6464 81.8865 32.9168 81.0811 33.6616L72.235 31.1207L72.3178 26.5585C74.5758 25.9976 76.2647 23.8856 76.2647 21.3583C76.2647 18.4033 73.9641 16 71.1362 16C68.3084 16 66.007 18.4033 66.007 21.3583C66.007 22.0233 66.5222 22.5624 67.1597 22.5624C67.7963 22.5624 68.3124 22.0233 68.3124 21.3583C68.3124 19.7309 69.5792 18.4074 71.1371 18.4074C72.6933 18.4074 73.961 19.7308 73.961 21.3583C73.961 22.9848 72.6942 24.3082 71.1371 24.3082C71.0181 24.3082 70.9096 24.3443 70.8011 24.3788C70.7842 24.3838 70.7657 24.3838 70.7497 24.3897C70.306 24.5576 69.9852 24.9909 69.9852 25.5116C69.9852 25.5905 70.0142 25.6585 70.0278 25.7332L69.9298 31.1519L61.1913 33.6627C60.3851 32.9204 59.2629 32.6542 58.1771 33.027L48.8639 36.5428C48.4017 36.7183 47.9741 37.008 47.6292 37.3834L26.7179 60.1161C26.7138 60.1203 26.7098 60.127 26.7066 60.1312H11.4573C9.55063 60.1312 8 61.751 8 63.7428V68.5594C8 69.5653 8.39709 70.4748 9.03452 71.1297C8.39707 71.7855 8 72.6941 8 73.7001V78.5166C8 79.5226 8.39709 80.432 9.03452 81.087C8.39707 81.7428 8 82.6513 8 83.6573V88.4739C8 89.4798 8.39709 90.3893 9.03452 91.0442C8.39707 91.7 8 92.6086 8 93.6146V98.4311C8 99.4371 8.39709 100.347 9.03452 101.001C8.39707 101.657 8 102.566 8 103.572V108.388C8 110.38 9.55059 112 11.4573 112H92.2053C93.4207 112 94.4086 110.945 94.4086 109.65V68.0514L100.586 75.4282C100.929 75.8363 101.42 76.0815 101.936 76.1016C102.428 76.1084 102.955 75.9135 103.325 75.534L115.535 62.9434C115.61 62.8737 115.679 62.7965 115.737 62.7091C115.868 62.5093 115.964 62.2851 116.021 62.0416C116.024 62.0265 116.029 62.0097 116.032 61.9937C116.074 61.7964 116.089 61.5965 116.077 61.4067C116.066 61.2262 116.028 61.0818 116.012 61.0322L116.011 61.0337ZM71.1367 33.3008L79.5471 35.7175L71.1351 47.5609L62.7246 35.7175L71.1367 33.3008ZM10.3041 63.7422C10.3041 63.078 10.821 62.5381 11.4568 62.5381H26.4505C26.4931 62.6187 26.5309 62.6968 26.5896 62.7858C26.6692 62.9084 26.7688 63.0092 26.8798 63.0881L33.3522 69.7621H11.4572C10.8222 69.7621 10.3045 69.2222 10.3045 68.558L10.3041 63.7422ZM47.8651 109.592H11.4565C10.8214 109.592 10.3038 109.052 10.3038 108.388V103.572C10.3038 102.908 10.8206 102.368 11.4565 102.368H47.8651V109.592ZM47.8651 99.6352H11.4565C10.8214 99.6352 10.3038 99.0952 10.3038 98.431V93.6145C10.3038 92.9503 10.8206 92.4103 11.4565 92.4103H47.8651V99.6352ZM47.8651 89.6779H11.4565C10.8214 89.6779 10.3038 89.138 10.3038 88.4738V83.6572C10.3038 82.993 10.8206 82.4531 11.4565 82.4531H47.8651V89.6779ZM47.8651 79.7207H11.4565C10.8214 79.7207 10.3038 79.1808 10.3038 78.5165V73.7C10.3038 73.0358 10.8206 72.4958 11.4565 72.4958H36.0019L38.9503 75.5357C39.3209 75.9152 39.8385 76.1033 40.3401 76.1025C40.8546 76.0815 41.3449 75.8371 41.6873 75.4274L44.1431 72.495H47.8648L47.8651 79.7207ZM47.8651 69.7634H46.4327L47.8651 68.053V69.7634ZM102.024 73.4927L95.2977 65.46C94.7945 64.8613 94.0172 64.6547 93.3219 64.9276C92.5816 65.2182 92.1033 65.963 92.1033 66.8254V109.593L50.1695 109.592V66.8245C50.1695 65.963 49.6912 65.2173 48.9509 64.9268C48.2532 64.6539 47.4759 64.8613 46.9743 65.4609L40.2477 73.4909L28.6292 61.5124L28.7916 61.336L29.8993 60.1319L48.8833 39.4934L49.29 39.0508C49.3921 38.9408 49.5159 38.856 49.6477 38.8057L58.928 35.3015C59.28 35.1806 59.6619 35.3468 59.858 35.7062C59.8805 35.7482 59.9054 35.7877 59.9327 35.8263L60.3419 36.4032L69.3802 49.129C70.221 50.3138 72.0536 50.3121 72.892 49.129L81.9302 36.4032L82.3394 35.8271C82.3675 35.7885 82.3925 35.749 82.415 35.7071C82.6119 35.3477 82.9945 35.1822 83.3144 35.2906L92.6243 38.8057C92.757 38.8561 92.8824 38.9417 92.9836 39.0517L93.4016 39.506L113.644 61.5121L102.024 73.4927Z" fill="#121B3F" stroke="#121B3F" stroke-width="2" mask="url(#path-1-inside-1_0_841)"/>
</svg>
