<svg width="68" height="68" viewBox="0 0 68 68" fill="none" xmlns="http://www.w3.org/2000/svg">
<g filter="url(#filter0_bf_16_442)">
<circle cx="34" cy="34" r="32" fill="#70B6F6" fill-opacity="0.12"/>
</g>
<path d="M35.7639 43.3C34.8773 43.3 34.1557 44.0216 34.1557 44.9083C34.1557 45.7949 34.8773 46.5165 35.7639 46.5165C36.6505 46.5165 37.3721 45.7949 37.3721 44.9083C37.3721 44.0216 36.65 43.3 35.7639 43.3Z" fill="#3082F7"/>
<path d="M34.5878 39.816C34.5878 40.2772 34.2136 40.6514 33.7521 40.6514C33.2906 40.6514 32.9166 40.2772 32.9166 39.816C32.9166 39.3545 33.2905 38.9803 33.7521 38.9803C34.2136 38.9803 34.5878 39.3544 34.5878 39.816Z" fill="#3082F7"/>
<path d="M44.5726 49.6525C44.8549 49.318 45.0258 48.8977 44.9647 48.3885H47.8838V47.4285H44.7635C44.5977 46.746 44.4166 46.1214 44.313 45.7793L45.0515 45.0008L44.9521 44.7228C44.6928 43.9977 44.0931 41.8682 44.425 40.7306C44.6077 40.1047 44.9211 39.0279 45.1027 37.6771H41.276V36.7171H45.1999C45.3161 35.1397 45.2133 33.2933 44.557 31.3892C44.5051 31.1883 43.3688 26.9843 38.8278 24.4162L26.9478 24.4159C25.8914 25.4182 24.4088 27.0832 24.6097 28.3845C24.6555 28.6818 24.7355 29.0752 24.8282 29.5306C25.211 31.4131 25.9018 34.8125 25.1114 36.7169H40.3164V37.6769L24.6416 37.6772C23.7721 39.752 23.2276 44.0795 24.2624 47.2566C24.2819 47.316 24.3049 47.3699 24.3258 47.4283H20.38V48.3883H24.729C24.9832 48.8817 25.2826 49.3011 25.6236 49.6523H17.5V50.6123H50.428V49.6523H44.5726L44.5726 49.6525ZM39.7795 28.3597C33.0181 24.6135 27.6705 28.2944 27.617 28.3316L27.0628 27.5479C27.1207 27.5069 32.9611 23.4839 40.2443 27.5197L39.7795 28.3597ZM29.548 44.3081C28.5422 44.3081 27.7239 43.4897 27.7239 42.4839C27.7239 41.4781 28.5422 40.6598 29.548 40.6598C30.5538 40.6598 31.3721 41.4781 31.3721 42.4839C31.3719 43.4897 30.5535 44.3081 29.548 44.3081ZM31.9568 39.8158C31.9568 38.8258 32.7626 38.0201 33.7526 38.0201C34.7426 38.0201 35.5483 38.8258 35.5483 39.8158C35.5483 40.8058 34.7426 41.6116 33.7526 41.6116C32.7624 41.6113 31.9568 40.8056 31.9568 39.8158ZM35.7641 47.4759C34.348 47.4759 33.1959 46.3239 33.1959 44.9077C33.1959 43.4916 34.348 42.3395 35.7641 42.3395C37.1803 42.3395 38.3323 43.4916 38.3323 44.9077C38.3323 46.3241 37.1797 47.4759 35.7641 47.4759Z" fill="#3082F7"/>
<path d="M30.4119 42.4841C30.4119 42.9612 30.0251 43.348 29.548 43.348C29.0707 43.348 28.6839 42.9612 28.6839 42.4841C28.6839 42.0068 29.0707 41.62 29.548 41.62C30.0251 41.62 30.4119 42.0067 30.4119 42.4841Z" fill="#3082F7"/>
<path d="M37.1333 23.4555V21.7241H36.9916V19.9C36.9916 18.5767 35.9148 17.5 34.5915 17.5H30.3674C29.0442 17.5 27.9674 18.5767 27.9674 19.9V21.7241H27.7397V23.4555H37.1333ZM30.9953 21.7241H30.4194V20.38H30.9953V21.7241ZM32.5314 21.7241H31.9555V20.38H32.5314V21.7241ZM34.0673 21.7241H33.4914V20.38H34.0673V21.7241ZM36.0315 21.7241H35.0273V20.38H36.0315V21.7241ZM30.3673 18.46H34.5915C35.2162 18.46 35.7443 18.8623 35.9431 19.42H29.016C29.215 18.862 29.7425 18.46 30.3676 18.46H30.3673ZM28.9273 20.38H29.4593V21.7241H28.9273V20.38Z" fill="#3082F7"/>
<defs>
<filter id="filter0_bf_16_442" x="-24" y="-24" width="116" height="116" filterUnits="userSpaceOnUse" color-interpolation-filters="sRGB">
<feFlood flood-opacity="0" result="BackgroundImageFix"/>
<feGaussianBlur in="BackgroundImage" stdDeviation="13"/>
<feComposite in2="SourceAlpha" operator="in" result="effect1_backgroundBlur_16_442"/>
<feBlend mode="normal" in="SourceGraphic" in2="effect1_backgroundBlur_16_442" result="shape"/>
<feGaussianBlur stdDeviation="1" result="effect2_foregroundBlur_16_442"/>
</filter>
</defs>
</svg>
