<svg width="68" height="68" viewBox="0 0 68 68" fill="none" xmlns="http://www.w3.org/2000/svg">
<g filter="url(#filter0_bf_16_58)">
<circle cx="34" cy="34" r="32" fill="#70B6F6" fill-opacity="0.12"/>
</g>
<path d="M52.9903 42.2198C52.8703 41.5299 52.4203 40.8998 51.7903 40.5998C49.6903 39.5499 45.1003 38.0198 45.1003 38.0198V36.4899L45.2203 36.3999C46.0903 35.7399 46.7203 34.7199 46.9003 33.6098L46.9303 33.4598H47.0503C47.7703 33.4598 48.3703 33.0098 48.6103 32.4099C48.7603 32.1399 48.8503 31.8399 48.8503 31.5099C48.8503 31.2999 48.8203 31.0899 48.7303 30.8799C48.7003 30.6699 48.5503 30.4599 48.4003 30.3399L47.9803 30.0699L48.0703 29.6199C48.8503 26.2899 46.2403 23.2599 42.7603 23.1999H42.5203H42.2803C38.7702 23.2299 36.1903 26.2599 36.9403 29.5899L37.0603 30.0399L36.6403 30.3099C36.4603 30.4299 36.3403 30.6399 36.3103 30.8499C36.2203 31.0599 36.1903 31.2699 36.1903 31.4799C36.1903 31.8099 36.2803 32.1099 36.4303 32.3799C36.6703 33.0099 37.3003 33.4299 37.9903 33.4299H38.1103L38.1403 33.5799C38.3203 34.6899 38.9203 35.7098 39.8203 36.3699L39.9403 36.4599V37.9899C39.9403 37.9899 35.3502 39.5198 33.2503 40.5699C32.6203 40.8999 32.1703 41.4998 32.0503 42.1899C31.6903 44.2899 31.6303 47.8299 31.6303 47.8299H53.4401C53.4101 47.8599 53.3501 44.3198 52.9901 42.2199L52.9903 42.2198Z" fill="#3082F7"/>
<path d="M32.5601 39.25C33.7601 38.65 35.6501 37.93 37.1501 37.39C36.9401 36.97 36.5801 36.61 36.1601 36.4C34.0601 35.35 29.4701 33.82 29.4701 33.82V32.29L29.5901 32.2C30.4602 31.54 31.0901 30.52 31.2701 29.41L31.3001 29.26H31.4201C32.1401 29.26 32.7401 28.81 32.9801 28.21C33.1301 27.94 33.2201 27.64 33.2201 27.31C33.2201 27.1 33.1901 26.89 33.1001 26.68C33.0701 26.47 32.9201 26.26 32.7701 26.14L32.3501 25.87L32.4401 25.42C33.2201 22.09 30.6101 19.06 27.1301 19H26.8901H26.6501C23.1701 19.09 20.5901 22.09 21.3401 25.42L21.4601 25.87L21.0401 26.14C20.8601 26.26 20.7401 26.47 20.7101 26.68C20.6201 26.89 20.5901 27.1 20.5901 27.31C20.5901 27.64 20.6801 27.94 20.8301 28.21C21.0701 28.84 21.7001 29.26 22.3901 29.26H22.5101L22.5401 29.41C22.6901 30.52 23.2901 31.51 24.19 32.2L24.31 32.29V33.82C24.31 33.82 19.72 35.3499 17.6201 36.4C16.9901 36.73 16.5401 37.3299 16.4201 38.02C16.0601 40.12 16.0001 43.66 16.0001 43.66H30.3397C30.3997 43.06 30.4597 42.49 30.5497 41.98C30.7597 40.78 31.5097 39.7899 32.5597 39.25H32.5601Z" fill="#3082F7"/>
<defs>
<filter id="filter0_bf_16_58" x="-24" y="-24" width="116" height="116" filterUnits="userSpaceOnUse" color-interpolation-filters="sRGB">
<feFlood flood-opacity="0" result="BackgroundImageFix"/>
<feGaussianBlur in="BackgroundImage" stdDeviation="13"/>
<feComposite in2="SourceAlpha" operator="in" result="effect1_backgroundBlur_16_58"/>
<feBlend mode="normal" in="SourceGraphic" in2="effect1_backgroundBlur_16_58" result="shape"/>
<feGaussianBlur stdDeviation="1" result="effect2_foregroundBlur_16_58"/>
</filter>
</defs>
</svg>
