<svg width="68" height="68" viewBox="0 0 68 68" fill="none" xmlns="http://www.w3.org/2000/svg">
<g filter="url(#filter0_bf_16_523)">
<circle cx="34" cy="34" r="32" fill="#70B6F6" fill-opacity="0.12"/>
</g>
<path d="M21.7373 38.0799C21.6221 37.4271 21.5453 36.6975 21.5453 36.0064C21.5453 30.5919 24.9628 25.9456 29.7628 24.1408V21.1839C23.3884 23.1039 18.7037 29.0175 18.7037 36.0063C18.7037 37.2353 18.8571 38.4256 19.1261 39.5774L21.7373 38.0799Z" fill="#3082F7"/>
<path d="M46.8893 36.0063C46.8893 36.6974 46.8124 37.3887 46.6972 38.0798L49.27 39.5774C49.5389 38.4639 49.6924 37.235 49.6924 36.0063C49.6924 29.0175 45.0459 23.1039 38.6716 21.1839V24.1408C43.4716 25.9456 46.8892 30.5919 46.8892 36.0064L46.8893 36.0063Z" fill="#3082F7"/>
<path d="M34.2174 48.6783C31.1453 48.6783 28.3422 47.6031 26.1534 45.7983L23.6189 47.2576C26.3837 49.9073 30.1086 51.52 34.2173 51.52C38.3262 51.52 42.0509 49.9072 44.8157 47.2958L42.2818 45.7982C40.0929 47.603 37.2897 48.6782 34.2178 48.6782L34.2174 48.6783Z" fill="#3082F7"/>
<path d="M29.3021 27.9423C29.1487 28.2495 29.187 28.5951 29.379 28.8254L33.5646 34.2782C33.718 34.4703 33.987 34.6238 34.2556 34.6238C34.5245 34.6238 34.7549 34.5086 34.9467 34.2782L39.1322 28.8254C39.2474 28.672 39.3243 28.4799 39.3243 28.2879C39.3243 28.1727 39.286 28.0189 39.2474 27.9037C39.0939 27.5965 38.825 27.443 38.4795 27.443H36.5214V16.691C36.5214 16.3069 36.2142 16 35.8303 16H32.6814C32.2973 16 31.9903 16.3072 31.9903 16.691V27.4814H30.1087C29.7246 27.4431 29.4173 27.6352 29.3021 27.9424L29.3021 27.9423Z" fill="#3082F7"/>
<path d="M28.8797 43.9167C29.0332 44.1857 29.3404 44.3774 29.6863 44.3391C29.9935 44.3008 30.3007 44.1088 30.4159 43.8016L33.027 37.4657C33.1422 37.2353 33.1039 36.9281 32.9887 36.6977C32.8735 36.4674 32.6046 36.3136 32.3742 36.2753L25.5773 35.3922C25.3853 35.3539 25.1932 35.3922 25.0398 35.5074C24.9246 35.5843 24.8477 35.6609 24.7708 35.7763C24.5788 36.0452 24.5788 36.3908 24.7325 36.6594L25.6925 38.3105L16.3613 43.6864C16.0158 43.8784 15.9006 44.3008 16.0924 44.6464L17.6669 47.3729C17.8589 47.7185 18.2813 47.8336 18.6269 47.6419L27.9581 42.266L28.8797 43.9167Z" fill="#3082F7"/>
<path d="M52.1115 43.7247L42.7804 38.3488L43.7404 36.6978C43.8939 36.4289 43.8939 36.0833 43.7021 35.8147C43.51 35.5457 43.2028 35.3922 42.8955 35.4305L36.0987 36.3137C35.8298 36.352 35.5994 36.5057 35.4842 36.7361C35.3691 36.9664 35.3308 37.2354 35.4459 37.504L38.057 43.8399C38.1339 44.032 38.249 44.1471 38.4025 44.2623C38.5177 44.3392 38.6329 44.3775 38.7866 44.3775C39.0939 44.4158 39.4011 44.224 39.5932 43.9551L40.5532 42.304L49.8843 47.6799C50.2299 47.8719 50.6523 47.7568 50.8443 47.411L52.4188 44.6844C52.5723 44.3389 52.4571 43.9165 52.1116 43.7247L52.1115 43.7247Z" fill="#3082F7"/>
<defs>
<filter id="filter0_bf_16_523" x="-24" y="-24" width="116" height="116" filterUnits="userSpaceOnUse" color-interpolation-filters="sRGB">
<feFlood flood-opacity="0" result="BackgroundImageFix"/>
<feGaussianBlur in="BackgroundImage" stdDeviation="13"/>
<feComposite in2="SourceAlpha" operator="in" result="effect1_backgroundBlur_16_523"/>
<feBlend mode="normal" in="SourceGraphic" in2="effect1_backgroundBlur_16_523" result="shape"/>
<feGaussianBlur stdDeviation="1" result="effect2_foregroundBlur_16_523"/>
</filter>
</defs>
</svg>
