<svg width="24" height="24" viewBox="0 0 24 24" fill="none" xmlns="http://www.w3.org/2000/svg">
<path d="M3.03604 4.5C2.83479 4.5 2.6439 4.54769 2.468 4.62616L11.38 13.1719C11.77 13.5463 12.205 13.5465 12.5961 13.1719L21.5159 4.6174C21.3426 4.54154 21.1535 4.5003 20.9559 4.5003L3.03604 4.5ZM1.51604 5.97832C1.50568 6.06001 1.49997 6.14553 1.49997 6.23064V17.7691C1.49997 18.7279 2.18495 19.5 3.03606 19.5H20.9561C21.8069 19.5 22.4922 18.7282 22.4922 17.7691V6.23064C22.4922 6.14553 22.4866 6.06001 22.4761 5.97832L13.5961 14.488C12.6755 15.3701 11.3005 15.3715 10.38 14.488L1.51604 5.97832Z" fill="white"/>
</svg>
