<svg width="160" height="128" viewBox="0 0 160 128" fill="none" xmlns="http://www.w3.org/2000/svg">
<path d="M67.9706 61.1597L67.9708 61.1607H112.445C122.898 61.1607 131.5 52.5587 131.5 42.1054C131.5 33.1701 125.09 25.2411 116.323 23.3858C116.323 23.3857 116.322 23.3856 116.322 23.3855L63.8922 12.6572C63.8918 12.6571 63.8914 12.657 63.891 12.6569C61.4477 12.1687 59.0254 12.8203 57.2486 14.5971C55.4539 16.3917 54.6517 18.8212 55.1356 21.2407L55.1373 21.2493L55.1387 21.2578L60.675 54.9941C60.6753 54.9955 60.6755 54.9969 60.6758 54.9983C61.3272 58.5702 64.411 61.1597 67.9706 61.1597ZM115.656 25.8672L115.66 25.868C123.332 27.4738 128.864 34.2535 128.864 42.1054C128.864 51.2074 121.372 58.6996 112.27 58.6996H67.7935C65.3087 58.6996 63.1874 56.9739 62.8005 54.4724C62.8003 54.4711 62.8001 54.4697 62.7999 54.4684L57.0904 20.9035L57.0879 20.8892L57.0863 20.8749C56.9006 19.2036 57.2711 17.6351 58.6423 16.4597L58.6653 16.4401L58.6904 16.4233C59.7536 15.7145 60.8941 15.128 62.2558 15.128H62.2578L62.2741 15.128C62.4354 15.1279 62.6389 15.1279 62.826 15.1546C62.9723 15.1755 63.1643 15.2194 63.3377 15.3342L115.656 25.8672Z" fill="#121B3F" stroke="#121B3F"/>
<path d="M102.236 116H125.253C127.33 116 129.406 114.962 130.618 113.231C131.829 111.501 132.175 109.251 131.483 107.347L113.658 58.3737H91.3333L95.8328 110.116C96.0058 113.404 98.9477 116 102.236 116ZM111.235 61.6608L128.194 108.386C128.54 109.251 128.367 110.289 127.848 111.155C127.156 112.02 126.29 112.539 125.252 112.539H102.235C100.677 112.539 99.2929 111.328 99.2929 109.77L95.1395 61.6608H111.235Z" fill="#121B3F"/>
<path d="M50.663 53.182C51.7014 53.182 52.3936 52.4898 52.3936 51.4514V24.6288C52.3936 23.5905 51.7014 22.8983 50.663 22.8983C49.6247 22.8983 48.9325 23.5905 48.9325 24.6288V51.4514C48.9325 52.3167 49.7978 53.182 50.663 53.182Z" fill="#121B3F"/>
<path d="M45.4734 59.4119C46.5117 59.4119 47.2039 58.7197 47.2039 57.6814V17.7066C47.2039 16.6683 46.5117 15.9761 45.4734 15.9761C44.435 15.9761 43.7428 16.6683 43.7428 17.7066V57.8554C43.7428 58.7207 44.6081 59.4129 45.4734 59.4129V59.4119Z" fill="#121B3F"/>
<path d="M40.6278 53.182C41.6662 53.182 42.3584 52.4898 42.3584 51.4514V24.6288C42.3584 23.5905 41.6662 22.8983 40.6278 22.8983C39.5895 22.8983 38.8973 23.5905 38.8973 24.6288V51.4514C38.8973 52.3167 39.5895 53.182 40.6278 53.182Z" fill="#121B3F"/>
<path d="M35.09 59.4119C36.1283 59.4119 36.8205 58.7197 36.8205 57.6814V17.7066C36.8205 16.6683 36.1283 15.9761 35.09 15.9761C34.0516 15.9761 33.3594 16.6683 33.3594 17.7066V57.8554C33.3594 58.7207 34.2247 59.4129 35.09 59.4129V59.4119Z" fill="#121B3F"/>
</svg>
