<svg width="160" height="128" viewBox="0 0 160 128" fill="none" xmlns="http://www.w3.org/2000/svg">
<mask id="path-1-outside-1_16_1243" maskUnits="userSpaceOnUse" x="20.0936" y="18.238" width="120" height="94" fill="black">
<rect fill="white" x="20.0936" y="18.238" width="120" height="94"/>
<path d="M93.1817 51.6399C95.6057 51.7936 98.4014 51.9427 100.562 51.9345C102.326 51.9263 103.6 52.1381 103.6 52.0463V52.0281L103.908 38.9172C99.2763 38.4926 95.0247 38.8626 91.1104 40.2599C87.0139 41.7217 83.2692 44.3182 79.8283 48.3171C78.3337 50.1708 77.1945 52.0471 76.3515 53.8817C75.4069 55.9326 74.8363 57.9325 74.5515 59.788C74.3158 61.3362 74.4515 62.5663 74.7899 63.1763C74.8489 63.2836 74.8926 63.3436 74.9149 63.3509C74.9381 63.359 74.8944 63.33 74.9274 63.3063C75.3346 63.0036 75.8131 62.1018 76.289 60.3944C76.6756 59.0053 77.1033 57.5191 77.6738 56.2735C78.3006 54.9053 79.1095 53.8418 80.2391 53.4927L80.6739 54.9599C80.0311 55.1609 79.4989 55.9218 79.0382 56.9227C78.5239 58.0463 78.1168 59.4745 77.7427 60.8118C77.1668 62.8791 76.4704 64.0572 75.8123 64.5445C75.357 64.8836 74.8962 64.959 74.4534 64.8154C74.057 64.6854 73.7266 64.3772 73.4757 63.9263C72.9918 63.0527 72.7722 61.4499 73.0614 59.5527C73.3659 57.5636 73.9775 55.4208 74.9838 53.229C75.8802 51.279 77.0909 49.288 78.6731 47.3282L78.6883 47.31C82.3107 43.0981 86.2687 40.3582 90.6124 38.8073C94.9436 37.2619 99.6419 36.9073 104.753 37.4573L105.447 37.5328L105.107 52.0645C105.084 53.1018 103.185 53.4591 100.566 53.4691C98.3312 53.4773 95.5178 53.3282 93.091 53.1745L93.1803 51.6391L93.1817 51.6399ZM112.686 28.1461C114.445 26.2615 116.426 25.0362 118.715 24.1188C121.073 23.1724 123.737 22.5597 126.824 21.8824C127.465 21.5669 127.71 21.166 128.079 20.5606C128.217 20.3287 128.017 20.6542 128.194 20.3651C128.496 19.8751 128.837 19.5624 129.203 19.3906C129.498 19.2524 129.799 19.2133 130.097 19.2524C130.376 19.2887 130.637 19.3906 130.88 19.5442C131.499 19.9406 132.042 20.7124 132.403 21.5124C132.58 21.9087 132.774 22.5287 132.923 23.2378C133.127 24.2151 133.258 25.3933 133.158 26.4278C133.043 27.6269 132.616 28.6542 131.664 29.0995C131.518 29.1677 131.365 29.2195 131.206 29.2559C130.323 29.4459 129.859 29.0786 129.367 28.685C129.203 28.555 129.032 28.4168 128.874 28.3614C128.192 28.1186 126.665 28.4841 125.003 29.0596C123.119 29.7141 121.142 30.6232 119.957 31.2623C124.793 33.9915 129.606 40.5732 133.165 47.7615C137.407 56.3314 139.898 65.8407 138.538 70.7461C138.184 72.0206 137.629 72.8261 136.849 73.4443C136.111 74.028 135.225 74.3961 134.117 74.8362L134.097 74.8416L132.768 75.3316C132.471 78.3652 130.587 78.2298 128.337 78.0662C126.693 77.9462 124.783 77.808 123.583 79.7007C122.843 80.8707 122.142 82.4325 121.451 83.9808C120.69 85.6726 119.943 87.3463 119.124 88.5527C119.365 89.0973 119.482 89.6318 119.482 90.1818C119.485 90.8727 119.3 91.5554 118.942 92.28C116.382 97.4354 99.0967 103.23 78.5947 106.986C59.6073 110.463 37.7902 112.259 22.4028 110.236L22.2778 110.221L22.1706 110.169C21.9403 110.054 21.7813 109.944 21.6331 109.767C21.5001 109.608 21.4152 109.442 21.3179 109.199C20.9599 108.286 21.0617 107.585 21.4027 106.994C21.7019 106.47 22.1635 106.107 22.6286 105.761L22.6367 105.755L22.7697 105.656C22.6983 105.627 22.6286 105.594 22.5626 105.557C22.076 105.284 21.7304 104.845 21.8179 104.147L21.8331 104.024L21.8813 103.915C22.4858 102.599 22.726 102.073 22.9697 101.538C25.151 96.7471 27.1528 92.3472 29.8689 87.4944C29.9868 87.2807 29.6975 86.7125 29.452 86.238H29.4493C29.3698 86.0816 29.293 85.9307 29.2064 85.7353C27.9189 82.819 28.2877 82.6363 29.8412 81.8699C29.9769 81.8017 30.1225 81.729 30.1921 81.6953C33.9092 79.7563 35.7162 76.829 37.7823 73.4845C38.3278 72.6009 38.8903 71.6881 39.477 70.8072C41.6841 67.4808 45.6849 61.6345 48.9439 57.3835C50.7618 55.0171 52.3867 53.1299 53.4395 52.3871C53.3957 51.5398 53.5189 50.5125 53.9716 49.528C54.3091 48.7953 54.8243 48.0889 55.5769 47.4953C55.3341 46.8671 55.3162 46.1662 55.5002 45.5325C55.6278 45.0871 55.8564 44.6726 56.1734 44.3335C56.5011 43.9871 56.9207 43.7262 57.4225 43.6008C58.0296 43.4498 58.7457 43.5017 59.5475 43.8562L59.4966 42.5217V42.5089C59.3662 37.5253 64.7341 37.1008 71.4904 36.5635C72.0484 36.5189 72.619 36.4753 73.2699 36.4171C79.3163 31.2771 85.6859 28.5397 91.7172 27.2916C99.8913 25.5971 107.433 26.6453 112.691 28.1462L112.686 28.1461ZM119.266 25.5498C117.043 26.4434 115.144 27.6425 113.488 29.5243L113.17 29.887L112.715 29.7516C107.617 28.2343 100.135 27.1134 92.0149 28.7952C86.1452 30.0098 79.939 32.6915 74.0542 37.7515L73.8676 37.9133L73.6292 37.9315C73.0096 37.986 72.2953 38.0433 71.5962 38.0988C65.6472 38.5706 60.9185 38.946 61.0008 42.4624L61.1749 46.8542L59.8972 45.8533C58.9937 45.1469 58.2847 44.9669 57.7803 45.0951C57.5704 45.1469 57.3963 45.2569 57.2579 45.3997C57.1124 45.556 57.007 45.7515 56.9454 45.9651C56.8177 46.4033 56.8767 46.896 57.1579 47.2478L57.7079 47.9415L56.9552 48.3951C56.1463 48.8851 55.6365 49.5187 55.3347 50.1778C54.9249 51.0669 54.882 52.0079 54.9838 52.6988L55.0892 53.4178L54.3829 53.5642C53.8579 53.6733 52.1838 55.6524 50.131 58.3314C46.9212 62.5123 42.9347 68.3433 40.7258 71.6688C40.1061 72.6015 39.574 73.4669 39.0544 74.3069C36.8758 77.836 34.9659 80.9278 30.8749 83.0624C30.6803 83.1642 30.583 83.2106 30.4937 83.2551C30.0071 83.4951 29.8919 83.5524 30.5803 85.1106C30.6187 85.1969 30.7008 85.3579 30.7874 85.5279V85.5306C31.2017 86.3442 31.7017 87.3188 31.1794 88.2542C28.5017 93.0395 26.5071 97.4188 24.3391 102.183C23.9758 102.978 23.6043 103.792 23.3918 104.255C23.5043 104.297 23.64 104.321 23.7525 104.333C24.7204 104.364 25.1195 104.685 25.107 105.305C25.099 105.865 24.5793 106.238 23.8347 106.772L23.507 107.007V107.004C23.174 107.252 22.8543 107.502 22.7008 107.771C22.5856 107.969 22.5624 108.234 22.716 108.625C22.7365 108.674 22.7517 108.712 22.7624 108.734C37.9839 110.702 59.5395 108.914 78.3281 105.473C98.411 101.795 115.251 96.306 117.594 91.586C117.848 91.0778 117.978 90.6188 117.976 90.1815C117.976 89.7597 117.848 89.3269 117.586 88.8596L117.338 88.4142L117.648 88.0078C118.469 86.9342 119.268 85.1516 120.08 83.3423C120.797 81.7396 121.524 80.1151 122.315 78.8696C124.002 76.2085 126.391 76.3831 128.446 76.5313C129.967 76.6432 131.227 76.735 131.298 74.7541L131.316 74.235L133.571 73.4059V73.4032C134.564 73.0068 135.358 72.6813 135.929 72.2304C136.452 71.8159 136.83 71.2504 137.086 70.3332C138.346 65.7878 135.914 56.724 131.818 48.454C128.09 40.9267 123.011 34.1175 118.124 32.0611L117.043 31.6075L117.894 30.7921C118.434 30.2711 121.626 28.6075 124.521 27.6039C126.457 26.9339 128.326 26.5403 129.372 26.9103C129.774 27.0539 130.045 27.2676 130.304 27.4757C130.509 27.6403 130.701 27.7912 130.893 27.7494C130.949 27.7394 130.998 27.723 131.038 27.7021C131.41 27.5303 131.591 26.9666 131.658 26.2767C131.743 25.4221 131.627 24.4076 131.448 23.5558C131.32 22.9513 131.167 22.4477 131.034 22.1513C130.783 21.5931 130.44 21.0776 130.084 20.8504C130.015 20.8086 129.956 20.7804 129.91 20.7749C129.886 20.7722 129.859 20.7749 129.83 20.7877C129.733 20.8349 129.615 20.9568 129.482 21.1759C129.223 21.5977 129.428 21.2622 129.364 21.3659C128.834 22.2368 128.491 22.8049 127.38 23.3186L127.309 23.3495L127.227 23.3677C124.172 24.0404 121.541 24.6367 119.268 25.5495L119.266 25.5498ZM89.4919 51.4081C92.2695 51.3999 94.8034 51.7627 96.6526 52.3572C98.7544 53.0299 100.073 54.0699 100.112 55.3154V55.3645C100.114 56.5554 98.9598 57.559 97.0597 58.2398C95.4088 58.8289 93.1221 59.2253 90.5623 59.3062C90.281 59.3144 89.9891 59.3189 89.6846 59.3189C86.907 59.3271 84.3749 58.9644 82.524 58.3726C80.4222 57.6971 79.1034 56.6571 79.0677 55.4116L79.0651 55.3625C79.0624 54.1716 80.2168 53.1679 82.1194 52.4897C83.7704 51.8979 86.057 51.5015 88.6168 51.4233C88.8963 51.4133 89.19 51.4079 89.4927 51.4079L89.4919 51.4081ZM96.2044 53.8245C94.4838 53.2745 92.1106 52.9354 89.4919 52.9436C89.2205 52.9436 88.9419 52.9491 88.6571 52.9563C86.2562 53.0318 84.1311 53.3972 82.6134 53.9391C81.3465 54.3927 80.5733 54.8982 80.5733 55.3618V55.37C80.5884 55.8836 81.5054 56.4336 82.9742 56.9027C84.6947 57.4554 87.0679 57.7918 89.6839 57.7836C89.958 57.7836 90.2366 57.7782 90.5214 57.7709C92.9205 57.6954 95.0446 57.33 96.5634 56.7882C97.8331 56.3345 98.6063 55.8291 98.6036 55.3654V55.3573C98.5884 54.8436 97.6715 54.2963 96.2045 53.8245L96.2044 53.8245ZM100.795 51.9527C106.137 53.2818 109.379 54.7964 110.968 56.4281C113.1 58.6171 112.568 60.9062 110.223 63.1916C108.154 65.2116 104.563 67.2399 100.165 69.1843C83.8936 76.3888 56.2817 82.6415 55.1137 82.8661L54.8342 81.3543C55.9967 81.1325 83.4193 74.9215 99.5633 67.777C103.808 65.8979 107.248 63.9661 109.178 62.0842C110.832 60.4706 111.265 58.9143 109.898 57.5123C108.498 56.0732 105.493 54.7024 100.439 53.4459L100.795 51.9522L100.795 51.9527ZM25.1488 97.9978L25.1721 98.0005C33.7202 98.9651 45.788 100.326 51.8989 87.1052L52.2828 86.2734C59.6739 70.2771 65.4899 57.6875 83.5171 42.6323L84.4769 43.8187C66.7082 58.6579 60.9592 71.106 53.6495 86.9268L53.2629 87.7613V87.7641C46.6942 101.978 33.9987 100.547 25.0092 99.5321L24.9833 99.5294L25.1488 97.9978ZM100.111 55.3156C100.114 55.3674 100.111 56.4438 100.106 57.2493C100.1 57.7602 100.093 58.1874 100.08 58.2583C99.8593 59.3893 98.5334 60.3356 96.5219 60.9566C94.73 61.5093 92.3265 61.8502 89.6844 61.8584C87.1701 61.8666 84.8586 61.572 83.0773 61.0766C81.1193 60.5348 79.721 59.7111 79.255 58.7256C79.1246 58.4465 79.1041 56.5828 79.0933 55.8584V55.8556C79.0933 55.7302 79.0907 55.6475 79.0907 55.6102L80.5987 55.5684C80.5987 55.5838 80.6014 55.6884 80.6014 55.8393C80.6094 56.4675 80.6014 58.0284 80.6139 58.0547C80.8826 58.6202 81.9299 59.1629 83.4738 59.5902C85.1452 60.0538 87.3165 60.3302 89.6845 60.3229C92.1755 60.3174 94.4228 59.9993 96.0845 59.4865C97.5541 59.0329 98.4934 58.4938 98.596 57.9647C98.5987 57.952 98.596 57.6602 98.5987 57.2429C98.6041 56.4556 98.6068 55.4074 98.6041 55.3583L100.112 55.3165L100.111 55.3156ZM104.599 51.3148L127.011 59.093C129.374 59.9139 130.721 62.1448 131.53 65.093C132.293 67.8738 132.577 71.294 132.802 74.7293L131.294 74.8311C131.074 71.4738 130.801 68.1402 130.076 65.502C129.397 63.0283 128.327 61.1746 126.525 60.5493L104.112 52.7711L104.599 51.3138L104.599 51.3148ZM104.75 37.4557C112.649 38.2138 118.169 41.4358 122.301 46.2921C126.392 51.0958 129.091 57.4793 131.402 64.6422L129.966 65.1167C127.711 58.1258 125.09 51.9148 121.163 47.2987C117.277 42.7323 112.074 39.7006 104.61 38.9859L104.751 37.4559L104.75 37.4557ZM24.0867 104.381C37.1662 106.187 57.7598 104.624 76.6741 101.147C94.9089 97.7949 111.536 92.6802 118.283 87.1211L119.236 88.312C112.286 94.041 95.3982 99.2646 76.9411 102.658C57.8892 106.162 37.1171 107.733 23.8874 105.904L24.0874 104.382L24.0867 104.381ZM30.177 90.0793C29.9672 90.4856 29.9315 90.7438 30.0127 90.8847C30.0716 90.9865 30.2073 91.0674 30.3886 91.1302C30.6573 91.2183 31.0002 91.2556 31.3815 91.2447C32.7484 91.2002 34.4564 90.5511 35.1575 89.4802L49.1021 68.1612C50.4102 66.1594 50.5664 64.5902 50.1334 63.5811C49.9852 63.2393 49.7673 62.9629 49.5066 62.7657C49.2477 62.5675 48.9432 62.442 48.6209 62.3984C47.8423 62.2893 46.9495 62.6484 46.2789 63.5766L45.0602 62.6666C46.0941 61.2384 47.5361 60.6956 48.8236 60.8757C49.3995 60.9538 49.945 61.1802 50.4111 61.5375C50.8772 61.892 51.2611 62.3739 51.5174 62.9657C52.137 64.402 51.9986 66.5057 50.3602 69.0103L36.4183 90.3293C35.4406 91.8202 33.195 92.7219 31.4318 92.7792C30.8791 92.7974 30.3594 92.7347 29.9184 92.5865C29.3934 92.4092 28.9737 92.1092 28.7175 91.6792C28.3666 91.0819 28.3514 90.311 28.8407 89.3619L30.1773 90.0783L30.177 90.0793ZM28.7636 83.003C30.8734 81.0948 32.519 80.9284 34.0189 82.0702C35.327 83.0657 36.402 85.1357 37.5725 87.9347L36.185 88.5365C35.11 85.9719 34.16 84.1003 33.1153 83.303C32.2599 82.6539 31.2206 82.8393 29.7672 84.1557L28.7636 83.0039L28.7636 83.003ZM73.6207 36.397C75.7511 36.5615 76.5752 37.6743 76.4493 39.3424C76.3011 41.336 74.4546 44.2297 71.8619 47.0105C69.3298 49.7288 66.061 52.3905 62.986 54.0068C58.9771 56.1131 55.2468 56.4804 53.5654 53.1595L54.9065 52.4559C56.0869 54.7831 59.0413 54.3486 62.2948 52.6386C65.218 51.1031 68.3412 48.5596 70.768 45.953C73.1385 43.4093 74.8205 40.8593 74.9412 39.2284C74.9975 38.5038 74.5778 38.0138 73.5073 37.9302L73.6198 36.3975L73.6207 36.397ZM60.6109 44.5187C62.1877 45.6214 63.253 46.4896 64.0287 47.5786C64.8144 48.6786 65.2707 49.9531 65.6207 51.8459L64.1359 52.1277C63.8287 50.475 63.4475 49.3831 62.8046 48.4813C62.1519 47.5668 61.1966 46.7922 59.761 45.7887L60.611 44.5196L60.6109 44.5187ZM75.8198 39.246C73.6921 39.7878 71.9261 40.1688 70.4644 40.4842C65.7384 41.506 64.5455 41.7642 64.4893 44.8816L64.425 48.4288L62.917 48.4052L62.9813 44.8552C63.0607 40.5125 64.4866 40.2053 70.1518 38.9797C71.5955 38.667 73.3419 38.2888 75.451 37.7525L75.8198 39.246ZM56.1894 47.0678C57.193 46.4687 58.7055 46.7914 60.3243 47.8214C61.7448 48.7287 63.3064 50.1987 64.669 52.0468L63.4636 52.9668C62.2118 51.2695 60.8012 49.9351 59.526 49.1221C58.3894 48.3976 57.4394 48.1031 56.9528 48.3921L56.1903 47.0676L56.1894 47.0678ZM118.125 32.0622L111.997 29.5441L112.558 28.1186L118.686 30.6368L118.125 32.0622ZM115.611 27.3313C115.36 27.2631 115.212 26.9977 115.281 26.7422C115.35 26.4868 115.608 26.3386 115.859 26.4059C116.391 26.5541 116.886 26.7786 117.316 27.0341C117.817 27.3341 118.234 27.6804 118.529 28.0013C118.706 28.1968 118.693 28.4995 118.5 28.6786C118.311 28.8586 118.014 28.8459 117.837 28.6522C117.601 28.3941 117.258 28.1122 116.839 27.8623C116.473 27.6432 116.058 27.4559 115.61 27.3304L115.611 27.3313ZM119.492 27.7768C119.313 27.5841 119.318 27.2813 119.505 27.0968C119.694 26.9141 119.991 26.9195 120.173 27.1095C120.551 27.5159 120.864 27.9668 121.102 28.4132C121.383 28.9341 121.568 29.4504 121.655 29.8777C121.708 30.1386 121.545 30.3913 121.289 30.4459C121.032 30.5004 120.784 30.3341 120.731 30.0732C120.662 29.7295 120.508 29.3068 120.275 28.8713C120.073 28.4959 119.812 28.1159 119.492 27.7768V27.7768ZM119.615 24.8549C119.408 24.6958 119.367 24.394 119.523 24.1822C119.68 23.9713 119.976 23.9295 120.184 24.0885C120.624 24.4249 121.001 24.8213 121.308 25.2249C121.665 25.694 121.928 26.174 122.079 26.5831C122.174 26.8303 122.05 27.1067 121.807 27.2031C121.562 27.2967 121.29 27.1722 121.199 26.924C121.074 26.5931 120.858 26.1994 120.561 25.8113C120.305 25.4749 119.988 25.1413 119.616 24.8549L119.615 24.8549ZM122.992 26.2258C122.847 26.0067 122.9 25.7094 123.113 25.5585C123.328 25.4076 123.623 25.4622 123.771 25.6813C124.083 26.1449 124.319 26.6403 124.485 27.1176C124.68 27.6758 124.78 28.2149 124.8 28.6531C124.81 28.9185 124.608 29.1431 124.349 29.154C124.089 29.1667 123.868 28.9613 123.857 28.6949C123.842 28.3458 123.757 27.9049 123.594 27.4358C123.453 27.0321 123.256 26.6121 122.992 26.2267V26.2258ZM123.942 23.4522C123.76 23.2622 123.765 22.9567 123.952 22.7722C124.136 22.5894 124.436 22.5922 124.617 22.7822C125.001 23.184 125.316 23.6321 125.556 24.0749C125.843 24.5958 126.03 25.1121 126.123 25.5367C126.176 25.7949 126.015 26.0531 125.759 26.1076C125.506 26.1649 125.252 25.9985 125.198 25.7403C125.124 25.394 124.971 24.9712 124.735 24.5412C124.531 24.1685 124.264 23.7903 123.941 23.4521L123.942 23.4522ZM127.373 24.9585C127.265 24.7158 127.373 24.4322 127.611 24.3222C127.849 24.2149 128.128 24.3222 128.236 24.5649C128.461 25.0731 128.605 25.6049 128.687 26.1076C128.779 26.6913 128.784 27.2413 128.725 27.674C128.692 27.9376 128.454 28.1222 128.195 28.0858C127.936 28.0522 127.757 27.8094 127.79 27.5458C127.837 27.1967 127.831 26.7458 127.755 26.2585C127.688 25.8367 127.565 25.3904 127.373 24.9576L127.373 24.9585ZM122.265 78.9583C124.474 73.9118 124.843 71.5373 123.65 70.9955C121.697 70.1091 116.045 72.5955 107.642 76.2891C94.0717 82.2581 73.4959 91.3054 48.6662 94.2719L48.4948 92.7447C73.0982 89.8046 93.5507 80.8092 107.046 74.8766C115.806 71.0238 121.702 68.4302 124.264 69.5929C126.395 70.5602 126.284 73.5493 123.642 79.5839L122.264 78.9585L122.265 78.9583ZM101.24 26.4294C104.207 26.6639 107.407 28.2876 109.84 30.9703C111.97 33.3186 113.518 36.4804 113.813 40.2313L112.305 40.3513C112.039 36.973 110.646 34.1267 108.729 32.0131C106.558 29.6176 103.729 28.1712 101.128 27.9623L101.24 26.4294Z"/>
</mask>
<path d="M93.1817 51.6399C95.6057 51.7936 98.4014 51.9427 100.562 51.9345C102.326 51.9263 103.6 52.1381 103.6 52.0463V52.0281L103.908 38.9172C99.2763 38.4926 95.0247 38.8626 91.1104 40.2599C87.0139 41.7217 83.2692 44.3182 79.8283 48.3171C78.3337 50.1708 77.1945 52.0471 76.3515 53.8817C75.4069 55.9326 74.8363 57.9325 74.5515 59.788C74.3158 61.3362 74.4515 62.5663 74.7899 63.1763C74.8489 63.2836 74.8926 63.3436 74.9149 63.3509C74.9381 63.359 74.8944 63.33 74.9274 63.3063C75.3346 63.0036 75.8131 62.1018 76.289 60.3944C76.6756 59.0053 77.1033 57.5191 77.6738 56.2735C78.3006 54.9053 79.1095 53.8418 80.2391 53.4927L80.6739 54.9599C80.0311 55.1609 79.4989 55.9218 79.0382 56.9227C78.5239 58.0463 78.1168 59.4745 77.7427 60.8118C77.1668 62.8791 76.4704 64.0572 75.8123 64.5445C75.357 64.8836 74.8962 64.959 74.4534 64.8154C74.057 64.6854 73.7266 64.3772 73.4757 63.9263C72.9918 63.0527 72.7722 61.4499 73.0614 59.5527C73.3659 57.5636 73.9775 55.4208 74.9838 53.229C75.8802 51.279 77.0909 49.288 78.6731 47.3282L78.6883 47.31C82.3107 43.0981 86.2687 40.3582 90.6124 38.8073C94.9436 37.2619 99.6419 36.9073 104.753 37.4573L105.447 37.5328L105.107 52.0645C105.084 53.1018 103.185 53.4591 100.566 53.4691C98.3312 53.4773 95.5178 53.3282 93.091 53.1745L93.1803 51.6391L93.1817 51.6399ZM112.686 28.1461C114.445 26.2615 116.426 25.0362 118.715 24.1188C121.073 23.1724 123.737 22.5597 126.824 21.8824C127.465 21.5669 127.71 21.166 128.079 20.5606C128.217 20.3287 128.017 20.6542 128.194 20.3651C128.496 19.8751 128.837 19.5624 129.203 19.3906C129.498 19.2524 129.799 19.2133 130.097 19.2524C130.376 19.2887 130.637 19.3906 130.88 19.5442C131.499 19.9406 132.042 20.7124 132.403 21.5124C132.58 21.9087 132.774 22.5287 132.923 23.2378C133.127 24.2151 133.258 25.3933 133.158 26.4278C133.043 27.6269 132.616 28.6542 131.664 29.0995C131.518 29.1677 131.365 29.2195 131.206 29.2559C130.323 29.4459 129.859 29.0786 129.367 28.685C129.203 28.555 129.032 28.4168 128.874 28.3614C128.192 28.1186 126.665 28.4841 125.003 29.0596C123.119 29.7141 121.142 30.6232 119.957 31.2623C124.793 33.9915 129.606 40.5732 133.165 47.7615C137.407 56.3314 139.898 65.8407 138.538 70.7461C138.184 72.0206 137.629 72.8261 136.849 73.4443C136.111 74.028 135.225 74.3961 134.117 74.8362L134.097 74.8416L132.768 75.3316C132.471 78.3652 130.587 78.2298 128.337 78.0662C126.693 77.9462 124.783 77.808 123.583 79.7007C122.843 80.8707 122.142 82.4325 121.451 83.9808C120.69 85.6726 119.943 87.3463 119.124 88.5527C119.365 89.0973 119.482 89.6318 119.482 90.1818C119.485 90.8727 119.3 91.5554 118.942 92.28C116.382 97.4354 99.0967 103.23 78.5947 106.986C59.6073 110.463 37.7902 112.259 22.4028 110.236L22.2778 110.221L22.1706 110.169C21.9403 110.054 21.7813 109.944 21.6331 109.767C21.5001 109.608 21.4152 109.442 21.3179 109.199C20.9599 108.286 21.0617 107.585 21.4027 106.994C21.7019 106.47 22.1635 106.107 22.6286 105.761L22.6367 105.755L22.7697 105.656C22.6983 105.627 22.6286 105.594 22.5626 105.557C22.076 105.284 21.7304 104.845 21.8179 104.147L21.8331 104.024L21.8813 103.915C22.4858 102.599 22.726 102.073 22.9697 101.538C25.151 96.7471 27.1528 92.3472 29.8689 87.4944C29.9868 87.2807 29.6975 86.7125 29.452 86.238H29.4493C29.3698 86.0816 29.293 85.9307 29.2064 85.7353C27.9189 82.819 28.2877 82.6363 29.8412 81.8699C29.9769 81.8017 30.1225 81.729 30.1921 81.6953C33.9092 79.7563 35.7162 76.829 37.7823 73.4845C38.3278 72.6009 38.8903 71.6881 39.477 70.8072C41.6841 67.4808 45.6849 61.6345 48.9439 57.3835C50.7618 55.0171 52.3867 53.1299 53.4395 52.3871C53.3957 51.5398 53.5189 50.5125 53.9716 49.528C54.3091 48.7953 54.8243 48.0889 55.5769 47.4953C55.3341 46.8671 55.3162 46.1662 55.5002 45.5325C55.6278 45.0871 55.8564 44.6726 56.1734 44.3335C56.5011 43.9871 56.9207 43.7262 57.4225 43.6008C58.0296 43.4498 58.7457 43.5017 59.5475 43.8562L59.4966 42.5217V42.5089C59.3662 37.5253 64.7341 37.1008 71.4904 36.5635C72.0484 36.5189 72.619 36.4753 73.2699 36.4171C79.3163 31.2771 85.6859 28.5397 91.7172 27.2916C99.8913 25.5971 107.433 26.6453 112.691 28.1462L112.686 28.1461ZM119.266 25.5498C117.043 26.4434 115.144 27.6425 113.488 29.5243L113.17 29.887L112.715 29.7516C107.617 28.2343 100.135 27.1134 92.0149 28.7952C86.1452 30.0098 79.939 32.6915 74.0542 37.7515L73.8676 37.9133L73.6292 37.9315C73.0096 37.986 72.2953 38.0433 71.5962 38.0988C65.6472 38.5706 60.9185 38.946 61.0008 42.4624L61.1749 46.8542L59.8972 45.8533C58.9937 45.1469 58.2847 44.9669 57.7803 45.0951C57.5704 45.1469 57.3963 45.2569 57.2579 45.3997C57.1124 45.556 57.007 45.7515 56.9454 45.9651C56.8177 46.4033 56.8767 46.896 57.1579 47.2478L57.7079 47.9415L56.9552 48.3951C56.1463 48.8851 55.6365 49.5187 55.3347 50.1778C54.9249 51.0669 54.882 52.0079 54.9838 52.6988L55.0892 53.4178L54.3829 53.5642C53.8579 53.6733 52.1838 55.6524 50.131 58.3314C46.9212 62.5123 42.9347 68.3433 40.7258 71.6688C40.1061 72.6015 39.574 73.4669 39.0544 74.3069C36.8758 77.836 34.9659 80.9278 30.8749 83.0624C30.6803 83.1642 30.583 83.2106 30.4937 83.2551C30.0071 83.4951 29.8919 83.5524 30.5803 85.1106C30.6187 85.1969 30.7008 85.3579 30.7874 85.5279V85.5306C31.2017 86.3442 31.7017 87.3188 31.1794 88.2542C28.5017 93.0395 26.5071 97.4188 24.3391 102.183C23.9758 102.978 23.6043 103.792 23.3918 104.255C23.5043 104.297 23.64 104.321 23.7525 104.333C24.7204 104.364 25.1195 104.685 25.107 105.305C25.099 105.865 24.5793 106.238 23.8347 106.772L23.507 107.007V107.004C23.174 107.252 22.8543 107.502 22.7008 107.771C22.5856 107.969 22.5624 108.234 22.716 108.625C22.7365 108.674 22.7517 108.712 22.7624 108.734C37.9839 110.702 59.5395 108.914 78.3281 105.473C98.411 101.795 115.251 96.306 117.594 91.586C117.848 91.0778 117.978 90.6188 117.976 90.1815C117.976 89.7597 117.848 89.3269 117.586 88.8596L117.338 88.4142L117.648 88.0078C118.469 86.9342 119.268 85.1516 120.08 83.3423C120.797 81.7396 121.524 80.1151 122.315 78.8696C124.002 76.2085 126.391 76.3831 128.446 76.5313C129.967 76.6432 131.227 76.735 131.298 74.7541L131.316 74.235L133.571 73.4059V73.4032C134.564 73.0068 135.358 72.6813 135.929 72.2304C136.452 71.8159 136.83 71.2504 137.086 70.3332C138.346 65.7878 135.914 56.724 131.818 48.454C128.09 40.9267 123.011 34.1175 118.124 32.0611L117.043 31.6075L117.894 30.7921C118.434 30.2711 121.626 28.6075 124.521 27.6039C126.457 26.9339 128.326 26.5403 129.372 26.9103C129.774 27.0539 130.045 27.2676 130.304 27.4757C130.509 27.6403 130.701 27.7912 130.893 27.7494C130.949 27.7394 130.998 27.723 131.038 27.7021C131.41 27.5303 131.591 26.9666 131.658 26.2767C131.743 25.4221 131.627 24.4076 131.448 23.5558C131.32 22.9513 131.167 22.4477 131.034 22.1513C130.783 21.5931 130.44 21.0776 130.084 20.8504C130.015 20.8086 129.956 20.7804 129.91 20.7749C129.886 20.7722 129.859 20.7749 129.83 20.7877C129.733 20.8349 129.615 20.9568 129.482 21.1759C129.223 21.5977 129.428 21.2622 129.364 21.3659C128.834 22.2368 128.491 22.8049 127.38 23.3186L127.309 23.3495L127.227 23.3677C124.172 24.0404 121.541 24.6367 119.268 25.5495L119.266 25.5498ZM89.4919 51.4081C92.2695 51.3999 94.8034 51.7627 96.6526 52.3572C98.7544 53.0299 100.073 54.0699 100.112 55.3154V55.3645C100.114 56.5554 98.9598 57.559 97.0597 58.2398C95.4088 58.8289 93.1221 59.2253 90.5623 59.3062C90.281 59.3144 89.9891 59.3189 89.6846 59.3189C86.907 59.3271 84.3749 58.9644 82.524 58.3726C80.4222 57.6971 79.1034 56.6571 79.0677 55.4116L79.0651 55.3625C79.0624 54.1716 80.2168 53.1679 82.1194 52.4897C83.7704 51.8979 86.057 51.5015 88.6168 51.4233C88.8963 51.4133 89.19 51.4079 89.4927 51.4079L89.4919 51.4081ZM96.2044 53.8245C94.4838 53.2745 92.1106 52.9354 89.4919 52.9436C89.2205 52.9436 88.9419 52.9491 88.6571 52.9563C86.2562 53.0318 84.1311 53.3972 82.6134 53.9391C81.3465 54.3927 80.5733 54.8982 80.5733 55.3618V55.37C80.5884 55.8836 81.5054 56.4336 82.9742 56.9027C84.6947 57.4554 87.0679 57.7918 89.6839 57.7836C89.958 57.7836 90.2366 57.7782 90.5214 57.7709C92.9205 57.6954 95.0446 57.33 96.5634 56.7882C97.8331 56.3345 98.6063 55.8291 98.6036 55.3654V55.3573C98.5884 54.8436 97.6715 54.2963 96.2045 53.8245L96.2044 53.8245ZM100.795 51.9527C106.137 53.2818 109.379 54.7964 110.968 56.4281C113.1 58.6171 112.568 60.9062 110.223 63.1916C108.154 65.2116 104.563 67.2399 100.165 69.1843C83.8936 76.3888 56.2817 82.6415 55.1137 82.8661L54.8342 81.3543C55.9967 81.1325 83.4193 74.9215 99.5633 67.777C103.808 65.8979 107.248 63.9661 109.178 62.0842C110.832 60.4706 111.265 58.9143 109.898 57.5123C108.498 56.0732 105.493 54.7024 100.439 53.4459L100.795 51.9522L100.795 51.9527ZM25.1488 97.9978L25.1721 98.0005C33.7202 98.9651 45.788 100.326 51.8989 87.1052L52.2828 86.2734C59.6739 70.2771 65.4899 57.6875 83.5171 42.6323L84.4769 43.8187C66.7082 58.6579 60.9592 71.106 53.6495 86.9268L53.2629 87.7613V87.7641C46.6942 101.978 33.9987 100.547 25.0092 99.5321L24.9833 99.5294L25.1488 97.9978ZM100.111 55.3156C100.114 55.3674 100.111 56.4438 100.106 57.2493C100.1 57.7602 100.093 58.1874 100.08 58.2583C99.8593 59.3893 98.5334 60.3356 96.5219 60.9566C94.73 61.5093 92.3265 61.8502 89.6844 61.8584C87.1701 61.8666 84.8586 61.572 83.0773 61.0766C81.1193 60.5348 79.721 59.7111 79.255 58.7256C79.1246 58.4465 79.1041 56.5828 79.0933 55.8584V55.8556C79.0933 55.7302 79.0907 55.6475 79.0907 55.6102L80.5987 55.5684C80.5987 55.5838 80.6014 55.6884 80.6014 55.8393C80.6094 56.4675 80.6014 58.0284 80.6139 58.0547C80.8826 58.6202 81.9299 59.1629 83.4738 59.5902C85.1452 60.0538 87.3165 60.3302 89.6845 60.3229C92.1755 60.3174 94.4228 59.9993 96.0845 59.4865C97.5541 59.0329 98.4934 58.4938 98.596 57.9647C98.5987 57.952 98.596 57.6602 98.5987 57.2429C98.6041 56.4556 98.6068 55.4074 98.6041 55.3583L100.112 55.3165L100.111 55.3156ZM104.599 51.3148L127.011 59.093C129.374 59.9139 130.721 62.1448 131.53 65.093C132.293 67.8738 132.577 71.294 132.802 74.7293L131.294 74.8311C131.074 71.4738 130.801 68.1402 130.076 65.502C129.397 63.0283 128.327 61.1746 126.525 60.5493L104.112 52.7711L104.599 51.3138L104.599 51.3148ZM104.75 37.4557C112.649 38.2138 118.169 41.4358 122.301 46.2921C126.392 51.0958 129.091 57.4793 131.402 64.6422L129.966 65.1167C127.711 58.1258 125.09 51.9148 121.163 47.2987C117.277 42.7323 112.074 39.7006 104.61 38.9859L104.751 37.4559L104.75 37.4557ZM24.0867 104.381C37.1662 106.187 57.7598 104.624 76.6741 101.147C94.9089 97.7949 111.536 92.6802 118.283 87.1211L119.236 88.312C112.286 94.041 95.3982 99.2646 76.9411 102.658C57.8892 106.162 37.1171 107.733 23.8874 105.904L24.0874 104.382L24.0867 104.381ZM30.177 90.0793C29.9672 90.4856 29.9315 90.7438 30.0127 90.8847C30.0716 90.9865 30.2073 91.0674 30.3886 91.1302C30.6573 91.2183 31.0002 91.2556 31.3815 91.2447C32.7484 91.2002 34.4564 90.5511 35.1575 89.4802L49.1021 68.1612C50.4102 66.1594 50.5664 64.5902 50.1334 63.5811C49.9852 63.2393 49.7673 62.9629 49.5066 62.7657C49.2477 62.5675 48.9432 62.442 48.6209 62.3984C47.8423 62.2893 46.9495 62.6484 46.2789 63.5766L45.0602 62.6666C46.0941 61.2384 47.5361 60.6956 48.8236 60.8757C49.3995 60.9538 49.945 61.1802 50.4111 61.5375C50.8772 61.892 51.2611 62.3739 51.5174 62.9657C52.137 64.402 51.9986 66.5057 50.3602 69.0103L36.4183 90.3293C35.4406 91.8202 33.195 92.7219 31.4318 92.7792C30.8791 92.7974 30.3594 92.7347 29.9184 92.5865C29.3934 92.4092 28.9737 92.1092 28.7175 91.6792C28.3666 91.0819 28.3514 90.311 28.8407 89.3619L30.1773 90.0783L30.177 90.0793ZM28.7636 83.003C30.8734 81.0948 32.519 80.9284 34.0189 82.0702C35.327 83.0657 36.402 85.1357 37.5725 87.9347L36.185 88.5365C35.11 85.9719 34.16 84.1003 33.1153 83.303C32.2599 82.6539 31.2206 82.8393 29.7672 84.1557L28.7636 83.0039L28.7636 83.003ZM73.6207 36.397C75.7511 36.5615 76.5752 37.6743 76.4493 39.3424C76.3011 41.336 74.4546 44.2297 71.8619 47.0105C69.3298 49.7288 66.061 52.3905 62.986 54.0068C58.9771 56.1131 55.2468 56.4804 53.5654 53.1595L54.9065 52.4559C56.0869 54.7831 59.0413 54.3486 62.2948 52.6386C65.218 51.1031 68.3412 48.5596 70.768 45.953C73.1385 43.4093 74.8205 40.8593 74.9412 39.2284C74.9975 38.5038 74.5778 38.0138 73.5073 37.9302L73.6198 36.3975L73.6207 36.397ZM60.6109 44.5187C62.1877 45.6214 63.253 46.4896 64.0287 47.5786C64.8144 48.6786 65.2707 49.9531 65.6207 51.8459L64.1359 52.1277C63.8287 50.475 63.4475 49.3831 62.8046 48.4813C62.1519 47.5668 61.1966 46.7922 59.761 45.7887L60.611 44.5196L60.6109 44.5187ZM75.8198 39.246C73.6921 39.7878 71.9261 40.1688 70.4644 40.4842C65.7384 41.506 64.5455 41.7642 64.4893 44.8816L64.425 48.4288L62.917 48.4052L62.9813 44.8552C63.0607 40.5125 64.4866 40.2053 70.1518 38.9797C71.5955 38.667 73.3419 38.2888 75.451 37.7525L75.8198 39.246ZM56.1894 47.0678C57.193 46.4687 58.7055 46.7914 60.3243 47.8214C61.7448 48.7287 63.3064 50.1987 64.669 52.0468L63.4636 52.9668C62.2118 51.2695 60.8012 49.9351 59.526 49.1221C58.3894 48.3976 57.4394 48.1031 56.9528 48.3921L56.1903 47.0676L56.1894 47.0678ZM118.125 32.0622L111.997 29.5441L112.558 28.1186L118.686 30.6368L118.125 32.0622ZM115.611 27.3313C115.36 27.2631 115.212 26.9977 115.281 26.7422C115.35 26.4868 115.608 26.3386 115.859 26.4059C116.391 26.5541 116.886 26.7786 117.316 27.0341C117.817 27.3341 118.234 27.6804 118.529 28.0013C118.706 28.1968 118.693 28.4995 118.5 28.6786C118.311 28.8586 118.014 28.8459 117.837 28.6522C117.601 28.3941 117.258 28.1122 116.839 27.8623C116.473 27.6432 116.058 27.4559 115.61 27.3304L115.611 27.3313ZM119.492 27.7768C119.313 27.5841 119.318 27.2813 119.505 27.0968C119.694 26.9141 119.991 26.9195 120.173 27.1095C120.551 27.5159 120.864 27.9668 121.102 28.4132C121.383 28.9341 121.568 29.4504 121.655 29.8777C121.708 30.1386 121.545 30.3913 121.289 30.4459C121.032 30.5004 120.784 30.3341 120.731 30.0732C120.662 29.7295 120.508 29.3068 120.275 28.8713C120.073 28.4959 119.812 28.1159 119.492 27.7768V27.7768ZM119.615 24.8549C119.408 24.6958 119.367 24.394 119.523 24.1822C119.68 23.9713 119.976 23.9295 120.184 24.0885C120.624 24.4249 121.001 24.8213 121.308 25.2249C121.665 25.694 121.928 26.174 122.079 26.5831C122.174 26.8303 122.05 27.1067 121.807 27.2031C121.562 27.2967 121.29 27.1722 121.199 26.924C121.074 26.5931 120.858 26.1994 120.561 25.8113C120.305 25.4749 119.988 25.1413 119.616 24.8549L119.615 24.8549ZM122.992 26.2258C122.847 26.0067 122.9 25.7094 123.113 25.5585C123.328 25.4076 123.623 25.4622 123.771 25.6813C124.083 26.1449 124.319 26.6403 124.485 27.1176C124.68 27.6758 124.78 28.2149 124.8 28.6531C124.81 28.9185 124.608 29.1431 124.349 29.154C124.089 29.1667 123.868 28.9613 123.857 28.6949C123.842 28.3458 123.757 27.9049 123.594 27.4358C123.453 27.0321 123.256 26.6121 122.992 26.2267V26.2258ZM123.942 23.4522C123.76 23.2622 123.765 22.9567 123.952 22.7722C124.136 22.5894 124.436 22.5922 124.617 22.7822C125.001 23.184 125.316 23.6321 125.556 24.0749C125.843 24.5958 126.03 25.1121 126.123 25.5367C126.176 25.7949 126.015 26.0531 125.759 26.1076C125.506 26.1649 125.252 25.9985 125.198 25.7403C125.124 25.394 124.971 24.9712 124.735 24.5412C124.531 24.1685 124.264 23.7903 123.941 23.4521L123.942 23.4522ZM127.373 24.9585C127.265 24.7158 127.373 24.4322 127.611 24.3222C127.849 24.2149 128.128 24.3222 128.236 24.5649C128.461 25.0731 128.605 25.6049 128.687 26.1076C128.779 26.6913 128.784 27.2413 128.725 27.674C128.692 27.9376 128.454 28.1222 128.195 28.0858C127.936 28.0522 127.757 27.8094 127.79 27.5458C127.837 27.1967 127.831 26.7458 127.755 26.2585C127.688 25.8367 127.565 25.3904 127.373 24.9576L127.373 24.9585ZM122.265 78.9583C124.474 73.9118 124.843 71.5373 123.65 70.9955C121.697 70.1091 116.045 72.5955 107.642 76.2891C94.0717 82.2581 73.4959 91.3054 48.6662 94.2719L48.4948 92.7447C73.0982 89.8046 93.5507 80.8092 107.046 74.8766C115.806 71.0238 121.702 68.4302 124.264 69.5929C126.395 70.5602 126.284 73.5493 123.642 79.5839L122.264 78.9585L122.265 78.9583ZM101.24 26.4294C104.207 26.6639 107.407 28.2876 109.84 30.9703C111.97 33.3186 113.518 36.4804 113.813 40.2313L112.305 40.3513C112.039 36.973 110.646 34.1267 108.729 32.0131C106.558 29.6176 103.729 28.1712 101.128 27.9623L101.24 26.4294Z" fill="#121B3F"/>
<path d="M93.1817 51.6399C95.6057 51.7936 98.4014 51.9427 100.562 51.9345C102.326 51.9263 103.6 52.1381 103.6 52.0463V52.0281L103.908 38.9172C99.2763 38.4926 95.0247 38.8626 91.1104 40.2599C87.0139 41.7217 83.2692 44.3182 79.8283 48.3171C78.3337 50.1708 77.1945 52.0471 76.3515 53.8817C75.4069 55.9326 74.8363 57.9325 74.5515 59.788C74.3158 61.3362 74.4515 62.5663 74.7899 63.1763C74.8489 63.2836 74.8926 63.3436 74.9149 63.3509C74.9381 63.359 74.8944 63.33 74.9274 63.3063C75.3346 63.0036 75.8131 62.1018 76.289 60.3944C76.6756 59.0053 77.1033 57.5191 77.6738 56.2735C78.3006 54.9053 79.1095 53.8418 80.2391 53.4927L80.6739 54.9599C80.0311 55.1609 79.4989 55.9218 79.0382 56.9227C78.5239 58.0463 78.1168 59.4745 77.7427 60.8118C77.1668 62.8791 76.4704 64.0572 75.8123 64.5445C75.357 64.8836 74.8962 64.959 74.4534 64.8154C74.057 64.6854 73.7266 64.3772 73.4757 63.9263C72.9918 63.0527 72.7722 61.4499 73.0614 59.5527C73.3659 57.5636 73.9775 55.4208 74.9838 53.229C75.8802 51.279 77.0909 49.288 78.6731 47.3282L78.6883 47.31C82.3107 43.0981 86.2687 40.3582 90.6124 38.8073C94.9436 37.2619 99.6419 36.9073 104.753 37.4573L105.447 37.5328L105.107 52.0645C105.084 53.1018 103.185 53.4591 100.566 53.4691C98.3312 53.4773 95.5178 53.3282 93.091 53.1745L93.1803 51.6391L93.1817 51.6399ZM112.686 28.1461C114.445 26.2615 116.426 25.0362 118.715 24.1188C121.073 23.1724 123.737 22.5597 126.824 21.8824C127.465 21.5669 127.71 21.166 128.079 20.5606C128.217 20.3287 128.017 20.6542 128.194 20.3651C128.496 19.8751 128.837 19.5624 129.203 19.3906C129.498 19.2524 129.799 19.2133 130.097 19.2524C130.376 19.2887 130.637 19.3906 130.88 19.5442C131.499 19.9406 132.042 20.7124 132.403 21.5124C132.58 21.9087 132.774 22.5287 132.923 23.2378C133.127 24.2151 133.258 25.3933 133.158 26.4278C133.043 27.6269 132.616 28.6542 131.664 29.0995C131.518 29.1677 131.365 29.2195 131.206 29.2559C130.323 29.4459 129.859 29.0786 129.367 28.685C129.203 28.555 129.032 28.4168 128.874 28.3614C128.192 28.1186 126.665 28.4841 125.003 29.0596C123.119 29.7141 121.142 30.6232 119.957 31.2623C124.793 33.9915 129.606 40.5732 133.165 47.7615C137.407 56.3314 139.898 65.8407 138.538 70.7461C138.184 72.0206 137.629 72.8261 136.849 73.4443C136.111 74.028 135.225 74.3961 134.117 74.8362L134.097 74.8416L132.768 75.3316C132.471 78.3652 130.587 78.2298 128.337 78.0662C126.693 77.9462 124.783 77.808 123.583 79.7007C122.843 80.8707 122.142 82.4325 121.451 83.9808C120.69 85.6726 119.943 87.3463 119.124 88.5527C119.365 89.0973 119.482 89.6318 119.482 90.1818C119.485 90.8727 119.3 91.5554 118.942 92.28C116.382 97.4354 99.0967 103.23 78.5947 106.986C59.6073 110.463 37.7902 112.259 22.4028 110.236L22.2778 110.221L22.1706 110.169C21.9403 110.054 21.7813 109.944 21.6331 109.767C21.5001 109.608 21.4152 109.442 21.3179 109.199C20.9599 108.286 21.0617 107.585 21.4027 106.994C21.7019 106.47 22.1635 106.107 22.6286 105.761L22.6367 105.755L22.7697 105.656C22.6983 105.627 22.6286 105.594 22.5626 105.557C22.076 105.284 21.7304 104.845 21.8179 104.147L21.8331 104.024L21.8813 103.915C22.4858 102.599 22.726 102.073 22.9697 101.538C25.151 96.7471 27.1528 92.3472 29.8689 87.4944C29.9868 87.2807 29.6975 86.7125 29.452 86.238H29.4493C29.3698 86.0816 29.293 85.9307 29.2064 85.7353C27.9189 82.819 28.2877 82.6363 29.8412 81.8699C29.9769 81.8017 30.1225 81.729 30.1921 81.6953C33.9092 79.7563 35.7162 76.829 37.7823 73.4845C38.3278 72.6009 38.8903 71.6881 39.477 70.8072C41.6841 67.4808 45.6849 61.6345 48.9439 57.3835C50.7618 55.0171 52.3867 53.1299 53.4395 52.3871C53.3957 51.5398 53.5189 50.5125 53.9716 49.528C54.3091 48.7953 54.8243 48.0889 55.5769 47.4953C55.3341 46.8671 55.3162 46.1662 55.5002 45.5325C55.6278 45.0871 55.8564 44.6726 56.1734 44.3335C56.5011 43.9871 56.9207 43.7262 57.4225 43.6008C58.0296 43.4498 58.7457 43.5017 59.5475 43.8562L59.4966 42.5217V42.5089C59.3662 37.5253 64.7341 37.1008 71.4904 36.5635C72.0484 36.5189 72.619 36.4753 73.2699 36.4171C79.3163 31.2771 85.6859 28.5397 91.7172 27.2916C99.8913 25.5971 107.433 26.6453 112.691 28.1462L112.686 28.1461ZM119.266 25.5498C117.043 26.4434 115.144 27.6425 113.488 29.5243L113.17 29.887L112.715 29.7516C107.617 28.2343 100.135 27.1134 92.0149 28.7952C86.1452 30.0098 79.939 32.6915 74.0542 37.7515L73.8676 37.9133L73.6292 37.9315C73.0096 37.986 72.2953 38.0433 71.5962 38.0988C65.6472 38.5706 60.9185 38.946 61.0008 42.4624L61.1749 46.8542L59.8972 45.8533C58.9937 45.1469 58.2847 44.9669 57.7803 45.0951C57.5704 45.1469 57.3963 45.2569 57.2579 45.3997C57.1124 45.556 57.007 45.7515 56.9454 45.9651C56.8177 46.4033 56.8767 46.896 57.1579 47.2478L57.7079 47.9415L56.9552 48.3951C56.1463 48.8851 55.6365 49.5187 55.3347 50.1778C54.9249 51.0669 54.882 52.0079 54.9838 52.6988L55.0892 53.4178L54.3829 53.5642C53.8579 53.6733 52.1838 55.6524 50.131 58.3314C46.9212 62.5123 42.9347 68.3433 40.7258 71.6688C40.1061 72.6015 39.574 73.4669 39.0544 74.3069C36.8758 77.836 34.9659 80.9278 30.8749 83.0624C30.6803 83.1642 30.583 83.2106 30.4937 83.2551C30.0071 83.4951 29.8919 83.5524 30.5803 85.1106C30.6187 85.1969 30.7008 85.3579 30.7874 85.5279V85.5306C31.2017 86.3442 31.7017 87.3188 31.1794 88.2542C28.5017 93.0395 26.5071 97.4188 24.3391 102.183C23.9758 102.978 23.6043 103.792 23.3918 104.255C23.5043 104.297 23.64 104.321 23.7525 104.333C24.7204 104.364 25.1195 104.685 25.107 105.305C25.099 105.865 24.5793 106.238 23.8347 106.772L23.507 107.007V107.004C23.174 107.252 22.8543 107.502 22.7008 107.771C22.5856 107.969 22.5624 108.234 22.716 108.625C22.7365 108.674 22.7517 108.712 22.7624 108.734C37.9839 110.702 59.5395 108.914 78.3281 105.473C98.411 101.795 115.251 96.306 117.594 91.586C117.848 91.0778 117.978 90.6188 117.976 90.1815C117.976 89.7597 117.848 89.3269 117.586 88.8596L117.338 88.4142L117.648 88.0078C118.469 86.9342 119.268 85.1516 120.08 83.3423C120.797 81.7396 121.524 80.1151 122.315 78.8696C124.002 76.2085 126.391 76.3831 128.446 76.5313C129.967 76.6432 131.227 76.735 131.298 74.7541L131.316 74.235L133.571 73.4059V73.4032C134.564 73.0068 135.358 72.6813 135.929 72.2304C136.452 71.8159 136.83 71.2504 137.086 70.3332C138.346 65.7878 135.914 56.724 131.818 48.454C128.09 40.9267 123.011 34.1175 118.124 32.0611L117.043 31.6075L117.894 30.7921C118.434 30.2711 121.626 28.6075 124.521 27.6039C126.457 26.9339 128.326 26.5403 129.372 26.9103C129.774 27.0539 130.045 27.2676 130.304 27.4757C130.509 27.6403 130.701 27.7912 130.893 27.7494C130.949 27.7394 130.998 27.723 131.038 27.7021C131.41 27.5303 131.591 26.9666 131.658 26.2767C131.743 25.4221 131.627 24.4076 131.448 23.5558C131.32 22.9513 131.167 22.4477 131.034 22.1513C130.783 21.5931 130.44 21.0776 130.084 20.8504C130.015 20.8086 129.956 20.7804 129.91 20.7749C129.886 20.7722 129.859 20.7749 129.83 20.7877C129.733 20.8349 129.615 20.9568 129.482 21.1759C129.223 21.5977 129.428 21.2622 129.364 21.3659C128.834 22.2368 128.491 22.8049 127.38 23.3186L127.309 23.3495L127.227 23.3677C124.172 24.0404 121.541 24.6367 119.268 25.5495L119.266 25.5498ZM89.4919 51.4081C92.2695 51.3999 94.8034 51.7627 96.6526 52.3572C98.7544 53.0299 100.073 54.0699 100.112 55.3154V55.3645C100.114 56.5554 98.9598 57.559 97.0597 58.2398C95.4088 58.8289 93.1221 59.2253 90.5623 59.3062C90.281 59.3144 89.9891 59.3189 89.6846 59.3189C86.907 59.3271 84.3749 58.9644 82.524 58.3726C80.4222 57.6971 79.1034 56.6571 79.0677 55.4116L79.0651 55.3625C79.0624 54.1716 80.2168 53.1679 82.1194 52.4897C83.7704 51.8979 86.057 51.5015 88.6168 51.4233C88.8963 51.4133 89.19 51.4079 89.4927 51.4079L89.4919 51.4081ZM96.2044 53.8245C94.4838 53.2745 92.1106 52.9354 89.4919 52.9436C89.2205 52.9436 88.9419 52.9491 88.6571 52.9563C86.2562 53.0318 84.1311 53.3972 82.6134 53.9391C81.3465 54.3927 80.5733 54.8982 80.5733 55.3618V55.37C80.5884 55.8836 81.5054 56.4336 82.9742 56.9027C84.6947 57.4554 87.0679 57.7918 89.6839 57.7836C89.958 57.7836 90.2366 57.7782 90.5214 57.7709C92.9205 57.6954 95.0446 57.33 96.5634 56.7882C97.8331 56.3345 98.6063 55.8291 98.6036 55.3654V55.3573C98.5884 54.8436 97.6715 54.2963 96.2045 53.8245L96.2044 53.8245ZM100.795 51.9527C106.137 53.2818 109.379 54.7964 110.968 56.4281C113.1 58.6171 112.568 60.9062 110.223 63.1916C108.154 65.2116 104.563 67.2399 100.165 69.1843C83.8936 76.3888 56.2817 82.6415 55.1137 82.8661L54.8342 81.3543C55.9967 81.1325 83.4193 74.9215 99.5633 67.777C103.808 65.8979 107.248 63.9661 109.178 62.0842C110.832 60.4706 111.265 58.9143 109.898 57.5123C108.498 56.0732 105.493 54.7024 100.439 53.4459L100.795 51.9522L100.795 51.9527ZM25.1488 97.9978L25.1721 98.0005C33.7202 98.9651 45.788 100.326 51.8989 87.1052L52.2828 86.2734C59.6739 70.2771 65.4899 57.6875 83.5171 42.6323L84.4769 43.8187C66.7082 58.6579 60.9592 71.106 53.6495 86.9268L53.2629 87.7613V87.7641C46.6942 101.978 33.9987 100.547 25.0092 99.5321L24.9833 99.5294L25.1488 97.9978ZM100.111 55.3156C100.114 55.3674 100.111 56.4438 100.106 57.2493C100.1 57.7602 100.093 58.1874 100.08 58.2583C99.8593 59.3893 98.5334 60.3356 96.5219 60.9566C94.73 61.5093 92.3265 61.8502 89.6844 61.8584C87.1701 61.8666 84.8586 61.572 83.0773 61.0766C81.1193 60.5348 79.721 59.7111 79.255 58.7256C79.1246 58.4465 79.1041 56.5828 79.0933 55.8584V55.8556C79.0933 55.7302 79.0907 55.6475 79.0907 55.6102L80.5987 55.5684C80.5987 55.5838 80.6014 55.6884 80.6014 55.8393C80.6094 56.4675 80.6014 58.0284 80.6139 58.0547C80.8826 58.6202 81.9299 59.1629 83.4738 59.5902C85.1452 60.0538 87.3165 60.3302 89.6845 60.3229C92.1755 60.3174 94.4228 59.9993 96.0845 59.4865C97.5541 59.0329 98.4934 58.4938 98.596 57.9647C98.5987 57.952 98.596 57.6602 98.5987 57.2429C98.6041 56.4556 98.6068 55.4074 98.6041 55.3583L100.112 55.3165L100.111 55.3156ZM104.599 51.3148L127.011 59.093C129.374 59.9139 130.721 62.1448 131.53 65.093C132.293 67.8738 132.577 71.294 132.802 74.7293L131.294 74.8311C131.074 71.4738 130.801 68.1402 130.076 65.502C129.397 63.0283 128.327 61.1746 126.525 60.5493L104.112 52.7711L104.599 51.3138L104.599 51.3148ZM104.75 37.4557C112.649 38.2138 118.169 41.4358 122.301 46.2921C126.392 51.0958 129.091 57.4793 131.402 64.6422L129.966 65.1167C127.711 58.1258 125.09 51.9148 121.163 47.2987C117.277 42.7323 112.074 39.7006 104.61 38.9859L104.751 37.4559L104.75 37.4557ZM24.0867 104.381C37.1662 106.187 57.7598 104.624 76.6741 101.147C94.9089 97.7949 111.536 92.6802 118.283 87.1211L119.236 88.312C112.286 94.041 95.3982 99.2646 76.9411 102.658C57.8892 106.162 37.1171 107.733 23.8874 105.904L24.0874 104.382L24.0867 104.381ZM30.177 90.0793C29.9672 90.4856 29.9315 90.7438 30.0127 90.8847C30.0716 90.9865 30.2073 91.0674 30.3886 91.1302C30.6573 91.2183 31.0002 91.2556 31.3815 91.2447C32.7484 91.2002 34.4564 90.5511 35.1575 89.4802L49.1021 68.1612C50.4102 66.1594 50.5664 64.5902 50.1334 63.5811C49.9852 63.2393 49.7673 62.9629 49.5066 62.7657C49.2477 62.5675 48.9432 62.442 48.6209 62.3984C47.8423 62.2893 46.9495 62.6484 46.2789 63.5766L45.0602 62.6666C46.0941 61.2384 47.5361 60.6956 48.8236 60.8757C49.3995 60.9538 49.945 61.1802 50.4111 61.5375C50.8772 61.892 51.2611 62.3739 51.5174 62.9657C52.137 64.402 51.9986 66.5057 50.3602 69.0103L36.4183 90.3293C35.4406 91.8202 33.195 92.7219 31.4318 92.7792C30.8791 92.7974 30.3594 92.7347 29.9184 92.5865C29.3934 92.4092 28.9737 92.1092 28.7175 91.6792C28.3666 91.0819 28.3514 90.311 28.8407 89.3619L30.1773 90.0783L30.177 90.0793ZM28.7636 83.003C30.8734 81.0948 32.519 80.9284 34.0189 82.0702C35.327 83.0657 36.402 85.1357 37.5725 87.9347L36.185 88.5365C35.11 85.9719 34.16 84.1003 33.1153 83.303C32.2599 82.6539 31.2206 82.8393 29.7672 84.1557L28.7636 83.0039L28.7636 83.003ZM73.6207 36.397C75.7511 36.5615 76.5752 37.6743 76.4493 39.3424C76.3011 41.336 74.4546 44.2297 71.8619 47.0105C69.3298 49.7288 66.061 52.3905 62.986 54.0068C58.9771 56.1131 55.2468 56.4804 53.5654 53.1595L54.9065 52.4559C56.0869 54.7831 59.0413 54.3486 62.2948 52.6386C65.218 51.1031 68.3412 48.5596 70.768 45.953C73.1385 43.4093 74.8205 40.8593 74.9412 39.2284C74.9975 38.5038 74.5778 38.0138 73.5073 37.9302L73.6198 36.3975L73.6207 36.397ZM60.6109 44.5187C62.1877 45.6214 63.253 46.4896 64.0287 47.5786C64.8144 48.6786 65.2707 49.9531 65.6207 51.8459L64.1359 52.1277C63.8287 50.475 63.4475 49.3831 62.8046 48.4813C62.1519 47.5668 61.1966 46.7922 59.761 45.7887L60.611 44.5196L60.6109 44.5187ZM75.8198 39.246C73.6921 39.7878 71.9261 40.1688 70.4644 40.4842C65.7384 41.506 64.5455 41.7642 64.4893 44.8816L64.425 48.4288L62.917 48.4052L62.9813 44.8552C63.0607 40.5125 64.4866 40.2053 70.1518 38.9797C71.5955 38.667 73.3419 38.2888 75.451 37.7525L75.8198 39.246ZM56.1894 47.0678C57.193 46.4687 58.7055 46.7914 60.3243 47.8214C61.7448 48.7287 63.3064 50.1987 64.669 52.0468L63.4636 52.9668C62.2118 51.2695 60.8012 49.9351 59.526 49.1221C58.3894 48.3976 57.4394 48.1031 56.9528 48.3921L56.1903 47.0676L56.1894 47.0678ZM118.125 32.0622L111.997 29.5441L112.558 28.1186L118.686 30.6368L118.125 32.0622ZM115.611 27.3313C115.36 27.2631 115.212 26.9977 115.281 26.7422C115.35 26.4868 115.608 26.3386 115.859 26.4059C116.391 26.5541 116.886 26.7786 117.316 27.0341C117.817 27.3341 118.234 27.6804 118.529 28.0013C118.706 28.1968 118.693 28.4995 118.5 28.6786C118.311 28.8586 118.014 28.8459 117.837 28.6522C117.601 28.3941 117.258 28.1122 116.839 27.8623C116.473 27.6432 116.058 27.4559 115.61 27.3304L115.611 27.3313ZM119.492 27.7768C119.313 27.5841 119.318 27.2813 119.505 27.0968C119.694 26.9141 119.991 26.9195 120.173 27.1095C120.551 27.5159 120.864 27.9668 121.102 28.4132C121.383 28.9341 121.568 29.4504 121.655 29.8777C121.708 30.1386 121.545 30.3913 121.289 30.4459C121.032 30.5004 120.784 30.3341 120.731 30.0732C120.662 29.7295 120.508 29.3068 120.275 28.8713C120.073 28.4959 119.812 28.1159 119.492 27.7768V27.7768ZM119.615 24.8549C119.408 24.6958 119.367 24.394 119.523 24.1822C119.68 23.9713 119.976 23.9295 120.184 24.0885C120.624 24.4249 121.001 24.8213 121.308 25.2249C121.665 25.694 121.928 26.174 122.079 26.5831C122.174 26.8303 122.05 27.1067 121.807 27.2031C121.562 27.2967 121.29 27.1722 121.199 26.924C121.074 26.5931 120.858 26.1994 120.561 25.8113C120.305 25.4749 119.988 25.1413 119.616 24.8549L119.615 24.8549ZM122.992 26.2258C122.847 26.0067 122.9 25.7094 123.113 25.5585C123.328 25.4076 123.623 25.4622 123.771 25.6813C124.083 26.1449 124.319 26.6403 124.485 27.1176C124.68 27.6758 124.78 28.2149 124.8 28.6531C124.81 28.9185 124.608 29.1431 124.349 29.154C124.089 29.1667 123.868 28.9613 123.857 28.6949C123.842 28.3458 123.757 27.9049 123.594 27.4358C123.453 27.0321 123.256 26.6121 122.992 26.2267V26.2258ZM123.942 23.4522C123.76 23.2622 123.765 22.9567 123.952 22.7722C124.136 22.5894 124.436 22.5922 124.617 22.7822C125.001 23.184 125.316 23.6321 125.556 24.0749C125.843 24.5958 126.03 25.1121 126.123 25.5367C126.176 25.7949 126.015 26.0531 125.759 26.1076C125.506 26.1649 125.252 25.9985 125.198 25.7403C125.124 25.394 124.971 24.9712 124.735 24.5412C124.531 24.1685 124.264 23.7903 123.941 23.4521L123.942 23.4522ZM127.373 24.9585C127.265 24.7158 127.373 24.4322 127.611 24.3222C127.849 24.2149 128.128 24.3222 128.236 24.5649C128.461 25.0731 128.605 25.6049 128.687 26.1076C128.779 26.6913 128.784 27.2413 128.725 27.674C128.692 27.9376 128.454 28.1222 128.195 28.0858C127.936 28.0522 127.757 27.8094 127.79 27.5458C127.837 27.1967 127.831 26.7458 127.755 26.2585C127.688 25.8367 127.565 25.3904 127.373 24.9576L127.373 24.9585ZM122.265 78.9583C124.474 73.9118 124.843 71.5373 123.65 70.9955C121.697 70.1091 116.045 72.5955 107.642 76.2891C94.0717 82.2581 73.4959 91.3054 48.6662 94.2719L48.4948 92.7447C73.0982 89.8046 93.5507 80.8092 107.046 74.8766C115.806 71.0238 121.702 68.4302 124.264 69.5929C126.395 70.5602 126.284 73.5493 123.642 79.5839L122.264 78.9585L122.265 78.9583ZM101.24 26.4294C104.207 26.6639 107.407 28.2876 109.84 30.9703C111.97 33.3186 113.518 36.4804 113.813 40.2313L112.305 40.3513C112.039 36.973 110.646 34.1267 108.729 32.0131C106.558 29.6176 103.729 28.1712 101.128 27.9623L101.24 26.4294Z" stroke="#121B3F" stroke-width="0.8" mask="url(#path-1-outside-1_16_1243)"/>
</svg>
