<svg width="68" height="68" viewBox="0 0 68 68" fill="none" xmlns="http://www.w3.org/2000/svg">
<g filter="url(#filter0_bf_16_29)">
<circle cx="34" cy="34" r="32" fill="#70B6F6" fill-opacity="0.12"/>
</g>
<path d="M30.2111 40.9216C29.5966 39.8848 28.5214 38.6175 27.4463 37.3888C26.5246 36.3136 25.5263 35.2385 24.8352 34.2016C24.336 33.472 23.4528 33.472 22.8 33.8561C22.0321 34.3168 21.4559 35.392 22.3008 36.9664C22.7232 37.8112 23.76 38.9633 24.8736 40.1154C24.9504 40.1922 24.9887 40.2689 25.0656 40.3457C25.3345 40.6147 25.2577 41.0754 24.9504 41.2674C24.6815 41.4209 24.336 41.3443 24.1439 41.1522C24.067 41.0753 24.0287 41.037 23.9518 40.9602C23.107 40.0385 22.339 39.1936 21.7629 38.4257C21.5325 38.1185 21.3405 37.8112 21.187 37.504C20.5343 36.2751 20.5343 35.1616 20.8798 34.3168C20.3039 33.0879 19.8046 31.8976 19.5743 31.1296C18.8832 28.9407 15.8877 29.4786 16.0032 31.8207C16.1184 34.1631 16.9632 42.1119 19.2673 44.7615C20.3042 45.9904 22.2242 47.6415 24.2208 49.0239C24.528 49.2542 24.7201 49.5998 24.7201 49.9839V51.5967C24.7201 52.096 25.1042 52.4798 25.6032 52.4798L31.248 52.4801C31.7473 52.4801 32.1311 52.096 32.1311 51.5969C32.0928 50.637 32.0543 49.0242 31.9777 47.6418C31.7856 44.7618 30.9025 42.0736 30.2111 40.9218L30.2111 40.9216Z" fill="#3082F7"/>
<path d="M49.0271 31.1296C48.7968 31.8976 48.2975 33.0496 47.7216 34.3168C48.0672 35.1616 48.0289 36.2752 47.4144 37.504C47.2609 37.8113 47.0688 38.1185 46.8385 38.4257C46.2626 39.1936 45.4944 40.0385 44.6496 40.9602C44.6113 41.0371 44.5344 41.0754 44.4575 41.1522C44.2655 41.3826 43.9199 41.4595 43.651 41.2674C43.3437 41.0754 43.2669 40.6146 43.5358 40.3457C43.6127 40.2689 43.651 40.1923 43.7279 40.1154C44.803 38.925 45.8399 37.8112 46.3006 36.9664C47.1072 35.3536 46.5696 34.3168 45.8014 33.8561C45.1486 33.472 44.2655 33.472 43.7662 34.2016C43.0751 35.2385 42.1151 36.352 41.1551 37.3888C40.0799 38.6178 39.0048 39.8847 38.3903 40.9217C37.6993 42.0737 36.8159 44.7617 36.6624 47.6417C36.5855 49.0241 36.5472 50.6369 36.5089 51.5969C36.5089 52.0962 36.893 52.48 37.392 52.48H43.0368C43.5361 52.48 43.92 52.0959 43.92 51.5969V49.9841C43.92 49.6 44.112 49.2544 44.4192 49.0241C46.4161 47.6417 48.2976 45.9906 49.3727 44.7617C51.6768 42.0737 52.5216 34.1632 52.6368 31.8208C52.7134 29.4782 49.7183 28.9406 49.0272 31.1295L49.0271 31.1296Z" fill="#3082F7"/>
<path d="M41.6542 27.3664C41.6542 23.0272 36.6622 17.8816 34.8959 16.2304C34.5504 15.9232 34.0128 15.9232 33.7056 16.2304C31.9391 17.9201 26.9473 23.0273 26.9473 27.3664C26.9473 32.6272 30.7489 34.6624 34.2817 34.6624C37.8142 34.6624 41.6544 32.6272 41.6544 27.3664H41.6542ZM34.4734 32.2816C31.9776 32.2816 29.4431 30.4385 29.4431 26.9824C29.4431 26.5599 29.7887 26.2144 30.2111 26.2144C30.6334 26.2144 30.979 26.56 30.979 26.9824C30.979 29.5934 32.7838 30.7455 34.4734 30.7455C34.8959 30.7455 35.2414 31.091 35.2414 31.5134C35.2416 31.9358 34.8958 32.2816 34.4734 32.2816V32.2816Z" fill="#3082F7"/>
<defs>
<filter id="filter0_bf_16_29" x="-24" y="-24" width="116" height="116" filterUnits="userSpaceOnUse" color-interpolation-filters="sRGB">
<feFlood flood-opacity="0" result="BackgroundImageFix"/>
<feGaussianBlur in="BackgroundImage" stdDeviation="13"/>
<feComposite in2="SourceAlpha" operator="in" result="effect1_backgroundBlur_16_29"/>
<feBlend mode="normal" in="SourceGraphic" in2="effect1_backgroundBlur_16_29" result="shape"/>
<feGaussianBlur stdDeviation="1" result="effect2_foregroundBlur_16_29"/>
</filter>
</defs>
</svg>
