<svg width="24" height="24" viewBox="0 0 24 24" fill="none" xmlns="http://www.w3.org/2000/svg">
<path d="M3.62078 3.10033C4.3761 2.3452 6.65954 2.21902 6.6767 2.61875C6.69385 3.01784 8.73307 7.44704 8.75073 7.84687C8.76841 8.24647 7.40656 9.60765 7.00824 10.0061C6.61337 10.4004 9.67284 13.8572 9.73073 13.9226C9.79578 13.981 13.2535 17.0391 13.6484 16.6441C14.0468 16.2457 15.4092 14.8845 15.8075 14.9023C16.207 14.9194 20.6385 16.9578 21.038 16.9761C21.4375 16.9932 21.3117 19.275 20.5563 20.0307C19.9102 20.6762 16.5654 23.0199 10.7492 18.8347C10.1114 18.4679 9.10132 17.6268 7.56929 16.096C7.56876 16.0954 7.56758 16.0943 7.56639 16.0936C7.5652 16.0919 7.56401 16.0912 7.56283 16.09C7.56164 16.0889 7.56045 16.0877 7.55926 16.0865C7.55874 16.0853 7.55755 16.0841 7.55689 16.0836C6.02604 14.5521 5.18428 13.5418 4.81724 12.9045C0.630744 7.08995 2.97542 3.74578 3.62084 3.10039L3.62078 3.10033Z" fill="white"/>
</svg>
