<svg width="68" height="68" viewBox="0 0 68 68" fill="none" xmlns="http://www.w3.org/2000/svg">
<g filter="url(#filter0_bf_0_823)">
<circle cx="34" cy="34" r="32" fill="#70B6F6" fill-opacity="0.12"/>
</g>
<path d="M24.6739 31.836C24.241 31.836 23.8901 32.1869 23.8901 32.6195C23.8901 33.0524 24.241 33.4033 24.6739 33.4033H45.1672C45.3156 33.4189 45.465 33.3915 45.5984 33.3251L49.8694 30.5823C50.0481 30.4695 50.174 30.2898 50.2182 30.0832C50.2623 29.8765 50.2214 29.6608 50.1043 29.4851C49.8694 29.1168 49.3878 28.9965 49.0072 29.2108L44.9322 31.8361H39.8775V30.2686H45.1672C45.3402 30.2523 45.5041 30.184 45.6375 30.0728L49.9085 26.9381C50.081 26.8194 50.1986 26.6365 50.2355 26.4305C50.2722 26.2242 50.2251 26.0121 50.1043 25.8409C49.9805 25.6711 49.7909 25.5613 49.582 25.539C49.3728 25.5166 49.1641 25.5835 49.0072 25.7233L44.9322 28.7014H39.8775V26.7423H45.1671C45.3501 26.7511 45.5304 26.6957 45.6766 26.5853L49.9476 23.2157C50.2813 22.9441 50.3338 22.4544 50.0652 22.1185C49.8056 21.7722 49.3144 21.702 48.968 21.9618L44.8928 25.1747H39.8774V23.2157H45.1671C45.3581 23.2387 45.5512 23.1974 45.7157 23.0981L49.9867 19.1796H49.9869C50.2208 18.9425 50.2971 18.5914 50.1827 18.2785C50.0804 17.953 49.7793 17.7312 49.4384 17.7299H44.3446C44.227 17.7299 43.9136 17.338 43.6002 17.338H35.1364C34.9414 17.3295 34.7491 17.3844 34.5878 17.4947L34.2745 17.7299H28.9454C28.7496 17.7299 28.5927 17.8866 28.436 18.0042L24.165 22.0009C23.9309 22.1881 23.8505 22.509 23.9692 22.7846C24.0758 23.0745 24.3677 23.2529 24.6744 23.2156H29.6901V25.1747H24.6744C24.2416 25.1747 23.8907 25.5256 23.8907 25.9585C23.8907 26.3914 24.2415 26.7422 24.6744 26.7422H29.6901V28.7013H24.6744C24.2416 28.7013 23.8907 29.0522 23.8907 29.4851C23.8907 29.9177 24.2415 30.2686 24.6744 30.2686H29.6901V31.8358L24.6739 31.836ZM44.8929 21.6484H40.818L43.4041 19.2974H47.4399L44.8929 21.6484ZM29.2586 19.2974H32.5891L30.042 21.6484H26.6726L29.2586 19.2974Z" fill="#3082F7"/>
<path d="M18.5224 37.3218H21.6572C22.1982 37.3218 22.6367 37.8629 22.6367 38.3014V49.6643C22.6367 50.2054 22.1982 50.6439 21.6572 50.6439H18.5224C17.9813 50.6439 17.5428 50.1028 17.5428 49.6643V38.3014C17.5428 37.7603 17.9813 37.3218 18.5224 37.3218Z" fill="#3082F7"/>
<path d="M50.1434 37.557H50.104C49.8723 37.2581 49.53 37.0647 49.1542 37.0205C48.7784 36.9763 48.4007 37.0851 48.1058 37.3221L43.0901 41.3579C42.4529 41.8642 41.6702 42.1527 40.8568 42.1808L35.9587 42.3375C35.232 42.3699 34.5112 42.1931 33.882 41.8283L33.451 41.554C33.061 41.3209 32.8117 40.9101 32.7849 40.4568C32.7594 40.1124 32.861 39.7708 33.0704 39.4963C33.2796 39.222 33.5826 39.034 33.9211 38.9678L37.9963 38.184C38.4862 38.1211 38.9054 37.8015 39.0959 37.3456C39.2863 36.8897 39.2191 36.3669 38.9196 35.9742C38.6199 35.5812 38.1337 35.3782 37.6438 35.4411H37.6047L32.3148 35.206C30.4503 35.1377 28.5999 35.5563 26.9467 36.4207L23.7338 38.0273L23.7335 46.8827L26.5154 46.3341C27.4216 46.1833 28.3411 46.1305 29.2583 46.1774L37.3298 46.5693C39.9063 46.6633 42.4283 45.8134 44.4222 44.1792L49.9864 39.5163C50.2711 39.2801 50.4487 38.9386 50.4782 38.5697C50.5077 38.2009 50.3869 37.8355 50.1431 37.5569L50.1434 37.557Z" fill="#3082F7"/>
<defs>
<filter id="filter0_bf_0_823" x="-24" y="-24" width="116" height="116" filterUnits="userSpaceOnUse" color-interpolation-filters="sRGB">
<feFlood flood-opacity="0" result="BackgroundImageFix"/>
<feGaussianBlur in="BackgroundImage" stdDeviation="13"/>
<feComposite in2="SourceAlpha" operator="in" result="effect1_backgroundBlur_0_823"/>
<feBlend mode="normal" in="SourceGraphic" in2="effect1_backgroundBlur_0_823" result="shape"/>
<feGaussianBlur stdDeviation="1" result="effect2_foregroundBlur_0_823"/>
</filter>
</defs>
</svg>
