<svg width="160" height="128" viewBox="0 0 160 128" fill="none" xmlns="http://www.w3.org/2000/svg">
<path d="M32.7001 118.09V118.59H33.2001H127.049H127.549V118.09V39.1504V38.6504H127.049H33.2001H32.7001V39.1504V118.09ZM128.475 120.44H31.751C31.2187 120.44 30.801 120.017 30.801 119.515V37.7254C30.801 37.2238 31.2187 36.8008 31.751 36.8008H128.475C129.008 36.8008 129.425 37.2238 129.425 37.7254V119.515C129.425 120.017 129.008 120.44 128.475 120.44Z" fill="#121B3F" stroke="#121B3F"/>
<path d="M128.475 39.1499H31.751C30.951 39.1499 30.301 38.5113 30.301 37.7254V6.48439C30.301 5.69842 30.951 5.05981 31.751 5.05981H128.475C129.275 5.05981 129.925 5.69842 129.925 6.48439V37.7501C129.925 38.5115 129.275 39.1501 128.475 39.1501V39.1499ZM33.2001 36.3254H127.049V7.88246H33.2001V36.3254Z" fill="#121B3F"/>
<path d="M80.1258 113.745C72.7009 113.745 65.5758 111.534 59.5507 107.334C53.9258 103.429 49.6007 98.0991 47.0257 91.8606H40.0007C39.2007 91.8606 38.5507 91.222 38.5507 90.436V66.8077C38.5507 66.0217 39.2007 65.3831 40.0007 65.3831H47.0007C49.5758 59.1445 53.9009 53.8146 59.5258 49.9095C65.5758 45.7095 72.6757 43.4989 80.1009 43.4989C99.801 43.4989 115.827 59.2674 115.827 78.6225C115.852 98.0015 99.8266 113.746 80.126 113.746L80.1258 113.745ZM41.4263 89.0363H48.0014C48.6014 89.0363 49.1514 89.4047 49.3514 89.945C54.1265 102.496 66.4764 110.92 80.1263 110.92C98.2264 110.92 112.977 96.4293 112.977 78.6465C112.977 60.8394 98.2515 46.3478 80.1263 46.3478C66.5014 46.3478 54.1263 54.7724 49.3514 67.3232C49.1514 67.8881 48.6014 68.232 48.0014 68.232H41.4263V89.0363Z" fill="#121B3F"/>
<path d="M80.126 106.965C64.2261 106.965 51.3008 94.267 51.3008 78.6458C51.3008 63.0246 64.2258 50.3016 80.126 50.3016C96.0261 50.3016 108.951 63.0244 108.951 78.6458C108.951 94.2423 96.0261 106.965 80.126 106.965ZM80.126 53.1266C65.8261 53.1266 54.1762 64.5723 54.1762 78.6211C54.1762 92.6699 65.8263 104.116 80.126 104.116C94.4256 104.116 106.076 92.6699 106.076 78.6211C106.076 64.5723 94.4256 53.1266 80.126 53.1266V53.1266Z" fill="#121B3F"/>
<path d="M45.7258 74.7407C44.9258 74.7407 44.2758 74.1021 44.2758 73.3161C44.2758 72.5302 44.9258 71.8915 45.7258 71.8915C46.5258 71.8915 47.1758 72.5301 47.1758 73.2915V73.3161C47.1758 74.1021 46.5258 74.7407 45.7258 74.7407V74.7407Z" fill="#121B3F"/>
<path d="M45.7258 80.0448C44.9258 80.0448 44.2758 79.4062 44.2758 78.6203C44.2758 77.8343 44.9258 77.1957 45.7258 77.1957C46.5258 77.1957 47.1758 77.8343 47.1758 78.5957V78.6202C47.1758 79.4062 46.5258 80.0448 45.7258 80.0448V80.0448Z" fill="#121B3F"/>
<path d="M45.7258 85.3512C44.9258 85.3512 44.2758 84.7126 44.2758 83.9267C44.2758 83.1407 44.9258 82.5021 45.7258 82.5021C46.5258 82.5021 47.1758 83.1407 47.1758 83.9021V83.9266C47.1758 84.7126 46.5258 85.3512 45.7258 85.3512V85.3512Z" fill="#121B3F"/>
<path d="M45.9749 30.1855C41.4498 30.1855 37.7499 26.5503 37.7499 22.1048C37.7499 17.6594 41.4249 14.0487 45.95 14.0487C50.475 14.0487 54.15 17.6592 54.15 22.1048C54.175 26.5505 50.4999 30.1855 45.9749 30.1855ZM45.9749 16.8732C43.0498 16.8732 40.6498 19.2067 40.6498 22.1048C40.6498 25.003 43.0498 27.3609 45.9749 27.3609C48.8999 27.3609 51.2999 25.003 51.2999 22.1048C51.2999 19.2311 48.8999 16.8732 45.9749 16.8732Z" fill="#121B3F"/>
<path d="M114.275 30.1855C109.749 30.1855 106.075 26.575 106.075 22.1048C106.075 17.6592 109.749 14.0487 114.275 14.0487C118.8 14.0487 122.475 17.6592 122.475 22.1048C122.475 26.5505 118.8 30.1855 114.275 30.1855V30.1855ZM114.275 16.8732C111.349 16.8732 108.949 19.2067 108.949 22.1048C108.949 25.003 111.349 27.3609 114.275 27.3609C117.2 27.3609 119.6 25.003 119.6 22.1048C119.6 19.2311 117.2 16.8732 114.275 16.8732V16.8732Z" fill="#121B3F"/>
<path d="M68.8002 20.828H61.2252C60.4252 20.828 59.7751 20.1894 59.7751 19.4034V12.1577C59.7751 11.3718 60.4252 10.7332 61.2252 10.7332H68.8002C69.6002 10.7332 70.2503 11.3718 70.2503 12.1577V19.4279C70.2503 20.2139 69.6002 20.8279 68.8002 20.8279V20.828ZM62.6503 18.0035H67.3502V13.5578H62.6503V18.0035Z" fill="#121B3F"/>
<path d="M83.9751 20.828H76.3751C75.5751 20.828 74.9251 20.1894 74.9251 19.4034V12.1577C74.9251 11.3718 75.5751 10.7332 76.3751 10.7332H83.9751C84.7751 10.7332 85.4251 11.3718 85.4251 12.1577V19.4279C85.4251 20.2139 84.7751 20.8279 83.9751 20.8279V20.828ZM77.8251 18.0035H82.525V13.5578H77.8251V18.0035Z" fill="#121B3F"/>
<path d="M68.8002 33.4776H61.2252C60.4252 33.4776 59.7751 32.839 59.7751 32.0531V24.7829C59.7751 23.9969 60.4252 23.3583 61.2252 23.3583H68.8002C69.6002 23.3583 70.2503 23.9969 70.2503 24.7829V32.0531C70.2503 32.839 69.6002 33.4776 68.8002 33.4776ZM62.6503 30.6531H67.3502V26.2074H62.6503V30.6531Z" fill="#121B3F"/>
<path d="M83.9751 33.4776H76.3751C75.5751 33.4776 74.9251 32.839 74.9251 32.0531V24.7829C74.9251 23.9969 75.5751 23.3583 76.3751 23.3583H83.9751C84.7751 23.3583 85.4251 23.9969 85.4251 24.7829V32.0531C85.4251 32.839 84.7751 33.4776 83.9751 33.4776ZM77.8251 30.6531H82.525V26.2074H77.8251V30.6531Z" fill="#121B3F"/>
<path d="M99.0239 20.828H91.4239C90.6239 20.828 89.9739 20.1894 89.9739 19.4034V12.1577C89.9739 11.3718 90.6239 10.7332 91.4239 10.7332H99.0239C99.8239 10.7332 100.474 11.3718 100.474 12.1577V19.4279C100.449 20.2139 99.7989 20.8279 99.0239 20.8279V20.828ZM92.8739 18.0035H97.5738V13.5578H92.8739V18.0035Z" fill="#121B3F"/>
<path d="M99.0239 33.4776H91.4239C90.6239 33.4776 89.9739 32.839 89.9739 32.0531V24.7829C89.9739 23.9969 90.6239 23.3583 91.4239 23.3583H99.0239C99.8239 23.3583 100.474 23.9969 100.474 24.7829V32.0531C100.449 32.839 99.7989 33.4776 99.0239 33.4776ZM92.8739 30.6531H97.5738V26.2074H92.8739V30.6531Z" fill="#121B3F"/>
</svg>
